<svg width="178" height="165" viewBox="0 0 178 165" fill="none" xmlns="http://www.w3.org/2000/svg">
<path d="M42.8769 153.354C41.826 153.354 40.8164 153.331 39.8435 153.276C33.0606 152.913 28.0354 151.284 24.0291 148.159C16.2274 142.069 12.914 130.72 7.89343 113.478C6.72777 109.481 5.50704 105.346 4.13028 100.826C-1.37676 82.9278 -1.37676 69.8991 4.13028 57.3155C10.4358 42.9375 24.5109 28.5595 48.4299 12.0568L48.6501 12.378L48.4299 12.0568C81.5226 -10.7791 102.867 3.74573 120.021 15.4207C123.004 17.4537 125.827 19.372 128.58 21.0103C133.169 23.7271 138.016 26.0951 142.724 28.3897C157.258 35.4663 170.989 42.1574 173.389 57.6597C174.973 67.9074 173.05 74.9472 170.388 84.6947C167.685 94.5982 164.316 106.925 162.807 128.214C161.191 151.05 143.018 150.068 117.86 148.691C102.578 147.851 85.2766 146.901 66.6352 150.527C56.7547 152.431 49.1045 153.354 42.8769 153.354ZM81.8851 0.813228C72.3121 0.813228 61.4448 4.02567 48.8429 12.6993C25.0892 29.1148 11.0967 43.3919 4.85538 57.6321C-0.582829 70.023 -0.57365 82.8728 4.85538 100.596C6.23214 105.121 7.45746 109.261 8.62311 113.262C13.6024 130.33 16.8837 141.61 24.4926 147.544C32.1015 153.478 44.2261 154.079 66.47 149.742C85.1802 146.103 102.555 147.053 117.869 147.906C130.393 148.595 141.205 149.187 148.91 146.819C157.231 144.253 161.269 138.508 162.003 128.173C163.518 106.81 166.896 94.4376 169.608 84.5019C172.247 74.8646 174.151 67.8753 172.591 57.7928C170.287 42.6805 156.735 36.0767 142.385 29.0873C137.667 26.7927 132.789 24.4155 128.186 21.6803C125.432 20.0282 122.582 18.1053 119.585 16.0631C109.163 8.97283 97.1764 0.813228 81.9035 0.813228H81.8851Z" fill="#F2F1F7"/>
<path d="M52.6014 16.2099C3.39138 50.1609 -1.23453 73.0656 8.4441 104.543C21.9685 148.512 20.3255 163.744 70.5039 153.955C120.682 144.166 163.83 167.723 166.368 132.019C169.397 89.3022 180.094 81.8493 176.95 61.5467C173.807 41.2441 150.953 36.2556 132.325 25.1727C113.697 14.0897 91.2012 -10.4258 52.6014 16.2099Z" fill="#F2F1F7"/>
<path d="M163.834 80.8764C164.183 80.8912 164.532 80.8317 164.856 80.7018C165.18 80.5719 165.473 80.3745 165.715 80.1228C165.957 79.8712 166.143 79.5709 166.26 79.2419C166.378 78.913 166.424 78.5628 166.395 78.2147C165.087 62.538 164.711 52.6115 166.629 36.3979C141.049 38.0408 126.065 38.5227 99.8977 36.3979C101.031 52.0517 101.348 62.2305 100.118 78.2285C99.7233 83.6391 104.707 78.2881 163.834 80.8764Z" fill="white"/>
<path d="M163.963 81.1426H163.835C134.946 79.876 118.888 80.5093 110.265 80.8535C103.716 81.1105 101.27 81.2069 100.32 80.2248C99.829 79.7108 99.8152 78.9536 99.8611 78.2101C101.086 62.2351 100.779 52.0058 99.6362 36.4484L99.6133 36.1455H99.9162C126.469 38.2978 141.302 37.7701 166.616 36.1455H166.923L166.886 36.453C165.023 52.2215 165.308 62.0791 166.652 78.2147C166.685 78.5899 166.639 78.9677 166.518 79.3242C166.396 79.6807 166.202 80.0081 165.947 80.2856C165.693 80.5631 165.383 80.7846 165.039 80.9361C164.694 81.0876 164.321 81.1657 163.945 81.1656L163.963 81.1426ZM132.169 79.8531C140.471 79.8531 150.879 80.0412 163.885 80.6103C164.198 80.6244 164.51 80.5717 164.8 80.4558C165.091 80.3399 165.354 80.1634 165.571 79.938C165.788 79.7127 165.954 79.4437 166.059 79.1489C166.164 78.8541 166.205 78.5404 166.18 78.2285C164.84 62.1663 164.55 52.3041 166.382 36.6687C141.329 38.2749 126.511 38.7935 100.224 36.6687C101.334 52.1113 101.646 62.3269 100.426 78.2331C100.361 79.0959 100.426 79.5456 100.733 79.8439C101.518 80.6608 104.083 80.5598 110.279 80.3028C115.001 80.1422 121.999 79.8531 132.169 79.8531Z" fill="#EEE4D9"/>
<path d="M164.082 33.906C164.417 33.8916 164.751 33.9456 165.064 34.0648C165.377 34.184 165.662 34.3658 165.902 34.5991C166.142 34.8324 166.332 35.1123 166.46 35.4216C166.589 35.7309 166.652 36.0631 166.648 36.3979C140.673 37.972 126.208 38.5915 99.916 36.3979C99.916 31.2855 101.931 36.6365 164.082 33.906Z" fill="#444244"/>
<path d="M131.081 38.0913C121.784 38.0913 112.123 37.6829 99.8749 36.6641H99.6362V36.4209C99.6362 35.6223 99.6729 34.9248 100.146 34.475C100.963 33.6903 102.817 33.7683 108.328 34.0161C116.791 34.3833 132.536 35.0625 164.05 33.6811C164.421 33.6635 164.791 33.722 165.137 33.853C165.484 33.984 165.801 34.1847 166.067 34.4428C166.333 34.7008 166.544 35.0107 166.685 35.3533C166.827 35.6959 166.897 36.0639 166.891 36.4346V36.6824H166.648C152.821 37.4993 142.219 38.0913 131.081 38.0913ZM100.178 36.1639C126.795 38.3713 141.242 37.6829 166.377 36.1639C166.326 35.6003 166.058 35.0785 165.63 34.708C165.202 34.3375 164.648 34.1471 164.082 34.1767C132.545 35.5535 116.786 34.8789 108.314 34.5117C103.266 34.2961 101.174 34.2043 100.513 34.833C100.26 35.0808 100.187 35.4847 100.178 36.1593V36.1639Z" fill="#444244"/>
<path d="M162.995 36.1226C163.913 36.0583 164.261 36.1226 164.238 35.7738C164.193 35.1267 164.238 34.7642 163.908 34.7871C162.99 34.8468 162.641 34.7871 162.664 35.1313C162.71 35.7967 162.664 36.1455 162.995 36.1226Z" fill="#BEC0C2"/>
<path d="M163.031 35.9849C163.014 35.9848 162.997 35.9811 162.981 35.974C162.965 35.9669 162.951 35.9565 162.94 35.9436C162.927 35.9316 162.918 35.9173 162.911 35.9016C162.905 35.8858 162.901 35.8689 162.901 35.8518C162.901 35.8347 162.905 35.8178 162.911 35.802C162.918 35.7862 162.927 35.772 162.94 35.76L163.775 34.9615C163.8 34.9378 163.833 34.9249 163.868 34.9258C163.902 34.9266 163.935 34.9411 163.958 34.9661C163.982 34.991 163.995 35.0244 163.994 35.0588C163.993 35.0932 163.979 35.1259 163.954 35.1496L163.119 35.9482C163.094 35.9697 163.064 35.9826 163.031 35.9849Z" fill="white"/>
<path d="M163.922 35.9252C163.893 35.9252 163.866 35.9155 163.844 35.8977L162.926 35.2185C162.912 35.2088 162.9 35.1966 162.891 35.1823C162.882 35.1681 162.876 35.1523 162.873 35.1356C162.87 35.119 162.87 35.102 162.874 35.0855C162.877 35.069 162.884 35.0534 162.894 35.0395C162.914 35.0112 162.945 34.9919 162.979 34.9859C163.013 34.9799 163.049 34.9876 163.077 35.0074L163.995 35.6866C164.023 35.7069 164.043 35.7375 164.049 35.7718C164.055 35.8061 164.047 35.8414 164.027 35.8701C164.015 35.8869 163.999 35.9006 163.981 35.9101C163.963 35.9197 163.942 35.9249 163.922 35.9252Z" fill="white"/>
<g opacity="0.7">
<g opacity="0.8">
<path opacity="0.8" d="M117.327 44.2591C106.625 44.2591 106.235 44.5574 106.235 43.4514C106.235 42.6162 106.075 41.5607 107.043 41.5607C117.745 41.5607 118.135 41.2624 118.135 42.3684C118.135 43.2036 118.3 44.2591 117.327 44.2591Z" fill="#D6723A"/>
<path opacity="0.8" d="M143.669 44.2591C122.059 44.2591 122.132 44.6767 122.132 43.1439C122.132 42.3821 122.247 41.5607 123.248 41.5607H143.669C145.17 41.5607 145.207 44.2591 143.669 44.2591Z" fill="#D6723A"/>
<path opacity="0.8" d="M159.52 44.2591C148.818 44.2591 148.428 44.5574 148.428 43.4514C148.428 42.6161 148.263 41.5606 149.236 41.5606C159.938 41.5606 160.328 41.2623 160.328 42.3683C160.328 43.2035 160.489 44.2591 159.52 44.2591Z" fill="#D6723A"/>
</g>
<g opacity="0.8">
<path opacity="0.8" d="M143.67 48.0728H123.248C121.742 48.0728 121.706 45.3789 123.248 45.3789H143.67C145.17 45.3789 145.207 48.0728 143.67 48.0728Z" fill="#D6723A"/>
</g>
<g opacity="0.8">
<path opacity="0.8" d="M117.327 51.891C106.625 51.891 106.235 52.1893 106.235 51.0833C106.235 50.2481 106.075 49.1926 107.043 49.1926C117.745 49.1926 118.135 48.8943 118.135 50.0003V51.0833C118.135 51.1894 118.114 51.2944 118.074 51.3924C118.033 51.4904 117.974 51.5794 117.899 51.6545C117.824 51.7295 117.735 51.7889 117.637 51.8295C117.539 51.8701 117.433 51.891 117.327 51.891Z" fill="#D6723A"/>
<path opacity="0.8" d="M143.669 51.891H123.247C121.742 51.891 121.706 49.1926 123.247 49.1926C144.858 49.1926 144.785 48.7704 144.785 50.3078C144.785 51.0696 144.665 51.891 143.669 51.891Z" fill="#D6723A"/>
<path opacity="0.8" d="M159.52 51.8911C148.818 51.8911 148.428 52.1894 148.428 51.0834C148.428 50.2481 148.263 49.1926 149.236 49.1926C159.938 49.1926 160.328 48.8943 160.328 50.0003C160.328 50.8356 160.489 51.8911 159.52 51.8911Z" fill="#D6723A"/>
</g>
<g opacity="0.8">
<path opacity="0.8" d="M117.327 55.7046C106.625 55.7046 106.235 56.0075 106.235 54.8969C106.235 54.0617 106.075 53.0108 107.043 53.0108H117.327C117.433 53.0102 117.538 53.0305 117.636 53.0706C117.734 53.1107 117.823 53.1697 117.898 53.2444C117.973 53.319 118.033 53.4077 118.074 53.5055C118.114 53.6032 118.135 53.708 118.135 53.8139V54.8969C118.135 55.1111 118.05 55.3166 117.899 55.468C117.747 55.6195 117.542 55.7046 117.327 55.7046Z" fill="#D6723A"/>
<path opacity="0.8" d="M159.52 55.7046C148.818 55.7046 148.428 56.0075 148.428 54.8969C148.428 54.0617 148.263 53.0108 149.236 53.0108C159.938 53.0108 160.328 52.7079 160.328 53.8139C160.328 54.6491 160.489 55.7046 159.52 55.7046Z" fill="#D6723A"/>
</g>
<g opacity="0.8">
<path opacity="0.8" d="M117.328 56.8244H107.043C106.597 56.8244 106.236 57.186 106.236 57.6321V58.7106C106.236 59.1566 106.597 59.5183 107.043 59.5183H117.328C117.774 59.5183 118.135 59.1566 118.135 58.7106V57.6321C118.135 57.186 117.774 56.8244 117.328 56.8244Z" fill="#D6723A"/>
<path opacity="0.8" d="M143.67 59.5183H123.248C121.742 59.5183 121.706 56.8244 123.248 56.8244H143.67C145.046 56.8244 144.785 58.6601 144.785 58.4077C144.785 58.5539 144.756 58.6987 144.7 58.8337C144.644 58.9688 144.562 59.0914 144.458 59.1946C144.354 59.2978 144.231 59.3795 144.096 59.435C143.961 59.4906 143.816 59.5189 143.67 59.5183Z" fill="#D6723A"/>
<path opacity="0.8" d="M159.521 59.5183C148.819 59.5183 148.429 59.8212 148.429 58.7152C148.429 57.8799 148.263 56.8244 149.236 56.8244C159.938 56.8244 160.328 56.5215 160.328 57.6321C160.328 58.4673 160.489 59.5183 159.521 59.5183Z" fill="#D6723A"/>
</g>
<g opacity="0.8">
<path opacity="0.8" d="M117.328 63.3319H107.043C106.829 63.3319 106.624 63.2468 106.472 63.0953C106.321 62.9438 106.236 62.7384 106.236 62.5242V61.4411C106.236 61.3353 106.257 61.2305 106.297 61.1327C106.338 61.035 106.397 60.9463 106.472 60.8716C106.547 60.797 106.637 60.7379 106.735 60.6978C106.833 60.6577 106.937 60.6374 107.043 60.638C117.745 60.638 118.135 60.3351 118.135 61.4411V62.5242C118.135 62.7384 118.05 62.9438 117.899 63.0953C117.747 63.2468 117.542 63.3319 117.328 63.3319Z" fill="#D6723A"/>
<path opacity="0.8" d="M143.67 63.3319H123.248C121.742 63.3319 121.706 60.638 123.248 60.638H143.67C145.046 60.638 144.785 62.4737 144.785 62.2167C144.785 62.5125 144.667 62.7961 144.458 63.0052C144.249 63.2144 143.965 63.3319 143.67 63.3319Z" fill="#D6723A"/>
</g>
<g opacity="0.8">
<path opacity="0.8" d="M117.328 64.4562H107.043C106.597 64.4562 106.236 64.8179 106.236 65.2639V66.3424C106.236 66.7885 106.597 67.1501 107.043 67.1501H117.328C117.774 67.1501 118.135 66.7885 118.135 66.3424V65.2639C118.135 64.8179 117.774 64.4562 117.328 64.4562Z" fill="#D6723A"/>
<path opacity="0.8" d="M159.521 64.4562H149.236C148.79 64.4562 148.429 64.8179 148.429 65.2639V66.3424C148.429 66.7885 148.79 67.1501 149.236 67.1501H159.521C159.967 67.1501 160.329 66.7885 160.329 66.3424V65.2639C160.329 64.8179 159.967 64.4562 159.521 64.4562Z" fill="#D6723A"/>
</g>
<g opacity="0.8">
<path opacity="0.8" d="M117.328 68.2699H107.043C106.597 68.2699 106.236 68.6315 106.236 69.0776V70.1561C106.236 70.6021 106.597 70.9638 107.043 70.9638H117.328C117.774 70.9638 118.135 70.6021 118.135 70.1561V69.0776C118.135 68.6315 117.774 68.2699 117.328 68.2699Z" fill="#D6723A"/>
<path opacity="0.8" d="M143.67 70.9684H123.248C121.742 70.9684 121.706 68.2699 123.248 68.2699H143.67C145.046 68.2699 144.785 70.1056 144.785 69.8532C144.785 70.1489 144.667 70.4326 144.458 70.6417C144.249 70.8509 143.965 70.9684 143.67 70.9684Z" fill="#D6723A"/>
</g>
<g opacity="0.8">
<path opacity="0.8" d="M117.328 72.088H107.043C106.597 72.088 106.236 72.4496 106.236 72.8957V73.9742C106.236 74.4203 106.597 74.7819 107.043 74.7819H117.328C117.774 74.7819 118.135 74.4203 118.135 73.9742V72.8957C118.135 72.4496 117.774 72.088 117.328 72.088Z" fill="#D6723A"/>
<path opacity="0.8" d="M143.67 74.8049H123.248C121.742 74.8049 121.706 72.111 123.248 72.111C144.858 72.111 144.785 71.6888 144.785 73.2262V73.6851C144.786 73.8321 144.758 73.9779 144.703 74.114C144.647 74.2501 144.565 74.3738 144.461 74.478C144.357 74.5821 144.234 74.6647 144.098 74.7208C143.962 74.7769 143.817 74.8055 143.67 74.8049Z" fill="#D6723A"/>
<path opacity="0.8" d="M159.521 72.088H149.236C148.79 72.088 148.429 72.4496 148.429 72.8957V73.9742C148.429 74.4203 148.79 74.7819 149.236 74.7819H159.521C159.967 74.7819 160.329 74.4203 160.329 73.9742V72.8957C160.329 72.4496 159.967 72.088 159.521 72.088Z" fill="#D6723A"/>
</g>
</g>
<path d="M145.157 90.0732C152.453 84.4101 158.635 65.4475 157.937 54.3233C157.24 43.1991 146.051 59.0043 144.578 73.5979C143.105 88.1916 145.157 90.0732 145.157 90.0732Z" fill="#58857A"/>
<path d="M140.292 112.065C141.068 107.687 145.712 96.365 153.83 94.41C163.532 92.0695 158.208 100.348 152.775 105.162C147.341 109.977 140.292 112.065 140.292 112.065Z" fill="#76A699"/>
<path d="M146.634 91.2986C153.637 89.7245 164.161 83.6851 167.873 75.2685C171.586 66.8519 160.214 68.8115 153.325 77.4529C146.437 86.0944 146.634 91.2986 146.634 91.2986Z" fill="#76A699"/>
<path d="M139.259 104.144C140.443 101.459 145.496 91.7529 141.118 82.0192C137.772 74.5801 134.161 82.0192 135.73 89.7245C137.3 97.4297 139.259 104.144 139.259 104.144Z" fill="#58857A"/>
<path d="M136.533 115.231C136.533 115.231 142.61 96.5027 138.369 85.1766C138.35 85.1261 138.352 85.0701 138.375 85.0211C138.397 84.972 138.438 84.9339 138.488 84.915C138.539 84.8961 138.595 84.8981 138.644 84.9205C138.693 84.9429 138.731 84.9838 138.75 85.0343C142.476 94.9837 138.502 109.697 137.208 113.946C142.619 105.181 152.545 58.5225 151.586 63.4651C146.341 90.2522 138.511 116.447 136.533 115.231Z" fill="#76A699"/>
<path d="M137.451 116.08C136.845 115.699 146.928 102.634 151.503 100.018C151.55 99.9975 151.603 99.995 151.652 100.011C151.7 100.027 151.741 100.061 151.766 100.106C151.791 100.15 151.799 100.203 151.788 100.253C151.777 100.303 151.747 100.347 151.705 100.376C146.877 103.13 137.451 116.08 137.451 116.08Z" fill="#58857A"/>
<path d="M143.665 95.9153C142.899 95.5114 154.119 79.9265 163.339 75.2639C163.386 75.2479 163.437 75.2492 163.483 75.2676C163.528 75.286 163.566 75.3202 163.589 75.3641C163.612 75.408 163.618 75.4587 163.607 75.5068C163.595 75.5549 163.567 75.5974 163.527 75.6264C155.684 79.6099 146.12 91.7621 143.94 95.851C143.911 95.8948 143.866 95.9257 143.815 95.9377C143.764 95.9496 143.71 95.9416 143.665 95.9153Z" fill="#58857A"/>
<path d="M147.988 87.0306C149.204 85.8696 152.426 79.5043 152.977 77.8247C152.984 77.799 152.996 77.7751 153.013 77.7544C153.03 77.7337 153.051 77.7166 153.074 77.7042C153.098 77.6917 153.124 77.6842 153.15 77.682C153.177 77.6799 153.204 77.6831 153.229 77.6916C153.839 77.9119 149.558 86.1036 148.268 87.3289C148.249 87.3473 148.225 87.3616 148.2 87.3711C148.175 87.3806 148.148 87.3851 148.122 87.3842C148.095 87.3834 148.068 87.3772 148.044 87.3662C148.019 87.3551 147.997 87.3393 147.979 87.3197C147.961 87.3002 147.946 87.2771 147.937 87.252C147.927 87.2269 147.923 87.2001 147.924 87.1733C147.925 87.1464 147.931 87.12 147.942 87.0955C147.953 87.0711 147.969 87.049 147.988 87.0306Z" fill="#58857A"/>
<path d="M42.909 66.6408C35.6121 60.9731 29.4305 42.0105 30.128 30.8863C30.8256 19.7621 42.0141 35.5673 43.4872 50.1839C44.9603 64.8005 42.909 66.6408 42.909 66.6408Z" fill="#58857A"/>
<path d="M47.7691 88.6276C46.9935 84.2495 42.3538 72.928 34.2355 70.973C24.5339 68.6371 29.8528 76.9114 35.291 81.7255C40.7292 86.5396 47.7691 88.6276 47.7691 88.6276Z" fill="#76A699"/>
<path d="M41.4314 67.8615C34.4191 66.2874 23.9053 60.2526 20.1926 51.8314C16.4799 43.4102 27.852 45.3744 34.7358 54.0159C41.6196 62.6573 41.4314 67.8615 41.4314 67.8615Z" fill="#76A699"/>
<path d="M48.8015 80.7067C47.6175 78.022 42.5648 68.3158 46.9659 58.5821C50.3114 51.143 53.9185 58.5821 52.3536 66.292C50.7887 74.0018 48.8015 80.7067 48.8015 80.7067Z" fill="#58857A"/>
<path d="M51.5321 91.785C51.5321 91.785 45.456 73.0565 49.6965 61.7303C49.7153 61.6798 49.7134 61.6239 49.691 61.5748C49.6686 61.5258 49.6277 61.4876 49.5771 61.4687C49.5266 61.4499 49.4707 61.4518 49.4216 61.4742C49.3726 61.4966 49.3344 61.5375 49.3156 61.5881C45.5937 71.5375 49.568 86.2504 50.8621 90.5C45.4331 81.7393 35.5158 35.0808 36.475 40.005C39.2652 54.2316 46.8603 87.0352 51.2752 91.7575C51.3089 91.7899 51.3524 91.8102 51.3989 91.8152C51.4455 91.8202 51.4923 91.8096 51.5321 91.785Z" fill="#76A699"/>
<path d="M50.6098 92.6432C51.2156 92.2623 41.1377 79.1968 36.5623 76.581C36.5391 76.5677 36.5135 76.5591 36.487 76.5558C36.4605 76.5524 36.4335 76.5543 36.4078 76.5613C36.382 76.5683 36.3578 76.5804 36.3367 76.5967C36.3156 76.6131 36.2979 76.6335 36.2846 76.6567C36.2714 76.6799 36.2628 76.7055 36.2594 76.732C36.2561 76.7585 36.258 76.7854 36.265 76.8112C36.272 76.837 36.2841 76.8611 36.3004 76.8822C36.3168 76.9034 36.3371 76.9211 36.3603 76.9343C39.894 78.9398 47.3423 87.8245 50.3299 92.5651C50.3428 92.589 50.3604 92.61 50.3816 92.6269C50.4028 92.6439 50.4272 92.6563 50.4533 92.6636C50.4794 92.6709 50.5067 92.6728 50.5336 92.6693C50.5605 92.6658 50.5864 92.6569 50.6098 92.6432Z" fill="#58857A"/>
<path d="M44.4831 72.2166C39.3662 62.616 25.1213 50.5785 24.4513 51.9094C24.4386 51.9331 24.4308 51.9592 24.4283 51.986C24.4259 52.0128 24.4288 52.0398 24.4369 52.0654C24.445 52.0911 24.4582 52.1148 24.4756 52.1353C24.4931 52.1558 24.5144 52.1726 24.5385 52.1847C32.3814 56.1682 41.9453 68.3204 44.1252 72.4094C44.1378 72.4329 44.155 72.4536 44.1757 72.4705C44.1964 72.4874 44.2202 72.5 44.2458 72.5077C44.2713 72.5154 44.2981 72.5179 44.3247 72.5152C44.3513 72.5125 44.377 72.5046 44.4005 72.492C44.424 72.4793 44.4448 72.4622 44.4617 72.4415C44.4786 72.4208 44.4912 72.397 44.4989 72.3714C44.5065 72.3458 44.5091 72.319 44.5064 72.2924C44.5037 72.2659 44.4958 72.2401 44.4831 72.2166Z" fill="#58857A"/>
<path d="M40.0729 63.5935C38.8614 62.4325 35.6398 56.0718 35.0891 54.3876C35.0726 54.3365 35.0366 54.294 34.9888 54.2694C34.941 54.2449 34.8855 54.2404 34.8344 54.2568C34.7832 54.2732 34.7407 54.3093 34.7162 54.357C34.6917 54.4048 34.6871 54.4604 34.7036 54.5115C35.2726 56.2691 38.5126 62.6665 39.793 63.8872C39.8123 63.9056 39.835 63.92 39.8598 63.9296C39.8847 63.9392 39.9112 63.9438 39.9378 63.9432C39.9645 63.9425 39.9907 63.9367 40.0151 63.9259C40.0394 63.9151 40.0614 63.8996 40.0798 63.8803C40.0982 63.8611 40.1126 63.8383 40.1222 63.8135C40.1318 63.7886 40.1364 63.7621 40.1358 63.7355C40.1351 63.7089 40.1293 63.6826 40.1185 63.6583C40.1077 63.6339 40.0922 63.6119 40.0729 63.5935Z" fill="#58857A"/>
<path d="M105.827 66.5444C80.2651 73.2676 64.7812 73.1895 40.0912 66.5444C37.7645 65.9202 38.407 67.6137 38.407 19.1517C63.7027 26.3797 80.0999 26.9533 107.525 19.1517V64.3416C107.522 64.844 107.355 65.3316 107.048 65.7295C106.741 66.1275 106.312 66.4137 105.827 66.5444Z" fill="white"/>
<path d="M72.7343 71.8312C62.5784 71.8312 52.4959 70.1561 40.027 66.7831L39.8251 66.7326C37.9894 66.2737 37.9894 66.2737 38.095 44.2455C38.095 37.7701 38.1501 29.7115 38.1501 19.1334V18.8167L38.4805 18.9131C64.8868 26.4577 81.004 26.4577 107.456 18.9131L107.787 18.8167V64.3508C107.785 64.9104 107.599 65.4539 107.257 65.897C106.915 66.3401 106.437 66.658 105.896 66.8014C93.1287 70.1515 82.8948 71.8312 72.7343 71.8312ZM38.6686 19.5143C38.6686 29.9272 38.6365 37.8711 38.6136 44.296C38.5355 65.7138 38.5447 65.9203 39.949 66.2691L40.1601 66.3241C65.0061 73.006 80.334 73.0014 105.786 66.3241C106.216 66.2116 106.598 65.9597 106.87 65.6077C107.142 65.2556 107.29 64.8234 107.291 64.3783V19.5005C93.4591 23.4059 82.6057 25.136 72.1652 25.0626C62.1608 24.9938 52.1242 23.3279 38.6686 19.5005V19.5143Z" fill="#EEE4D9"/>
<path d="M104.716 16.8663C80.1595 22.846 64.7077 23.3187 41.2752 16.981C40.9388 16.8941 40.5871 16.8847 40.2465 16.9536C39.9059 17.0225 39.5854 17.1678 39.3092 17.3786C39.033 17.5894 38.8083 17.8602 38.652 18.1705C38.4957 18.4808 38.4119 18.8226 38.407 19.17C65.2492 26.756 80.4991 26.6458 107.525 19.17C107.541 18.8177 107.475 18.4665 107.331 18.1443C107.187 17.8222 106.971 17.538 106.698 17.3143C106.425 17.0906 106.104 16.9336 105.76 16.8559C105.416 16.7781 105.059 16.7816 104.716 16.8663Z" fill="#444244"/>
<path d="M72.7527 25.0396C62.1516 25.0396 51.6424 23.1627 38.3337 19.4087L38.1455 19.3536V19.1563C38.1444 18.7653 38.234 18.3793 38.4073 18.0288C38.5806 17.6782 38.8328 17.3726 39.1441 17.136C39.4554 16.8994 39.8174 16.7383 40.2015 16.6652C40.5857 16.5921 40.9815 16.6091 41.358 16.7148C63.9001 22.8185 79.2831 22.7955 104.689 16.6139C105.061 16.5235 105.448 16.5178 105.822 16.5972C106.196 16.6766 106.548 16.8392 106.85 17.0728C107.161 17.3211 107.41 17.638 107.578 17.9987C107.746 18.3593 107.829 18.754 107.819 19.1517V19.349L107.626 19.4041C94.0237 23.1627 83.3492 25.0396 72.7527 25.0396ZM38.6779 18.9635C64.9556 26.3659 80.4075 26.3659 107.259 18.9635C107.242 18.6776 107.166 18.3984 107.035 18.1438C106.904 17.8893 106.72 17.6651 106.497 17.4858C106.257 17.2994 105.978 17.1696 105.681 17.106C105.384 17.0424 105.076 17.0468 104.781 17.1187C79.2923 23.3233 63.8451 23.3508 41.2065 17.215C40.924 17.1382 40.628 17.124 40.3394 17.1734C40.0508 17.2229 39.7765 17.3348 39.5356 17.5013C39.2948 17.6678 39.0932 17.885 38.945 18.1376C38.7969 18.3901 38.7057 18.672 38.6779 18.9635Z" fill="#444244"/>
<path d="M104.248 19.2389C105.12 18.9177 105.464 18.8718 105.345 18.5551C105.12 17.9448 105.06 17.5822 104.753 17.6969C103.881 18.0228 103.537 18.0641 103.656 18.3807C103.881 18.9911 103.936 19.3536 104.248 19.2389Z" fill="#BEC0C2"/>
<path d="M104.211 19.1012C104.191 19.1079 104.168 19.1079 104.147 19.1012C104.117 19.0839 104.095 19.0554 104.086 19.022C104.076 18.9886 104.08 18.9527 104.097 18.9222L104.675 17.8988C104.692 17.8687 104.721 17.8466 104.754 17.8372C104.788 17.8277 104.823 17.8317 104.854 17.8484C104.869 17.8569 104.882 17.8683 104.893 17.882C104.903 17.8957 104.911 17.9114 104.915 17.9281C104.919 17.9448 104.92 17.9622 104.917 17.9793C104.915 17.9963 104.909 18.0126 104.9 18.0273L104.326 19.0324C104.315 19.0527 104.298 19.0696 104.278 19.0817C104.258 19.0937 104.235 19.1004 104.211 19.1012Z" fill="white"/>
<path d="M105.047 18.8166H105.001L103.913 18.4311C103.881 18.4196 103.854 18.396 103.839 18.3652C103.823 18.3344 103.82 18.2988 103.831 18.2659C103.842 18.2335 103.866 18.2067 103.897 18.1913C103.928 18.1759 103.963 18.173 103.996 18.1833L105.088 18.5734C105.105 18.5786 105.12 18.587 105.133 18.5982C105.146 18.6094 105.157 18.6231 105.165 18.6385C105.172 18.6539 105.177 18.6707 105.178 18.6879C105.179 18.7051 105.177 18.7224 105.171 18.7386C105.16 18.7623 105.143 18.7823 105.121 18.7962C105.099 18.8101 105.073 18.8172 105.047 18.8166Z" fill="white"/>
<path d="M48.4986 41.3726H49.3292V44.3235C49.3292 45.5809 48.7235 45.9985 47.8194 45.9985C47.5824 46.0003 47.3467 45.9631 47.1218 45.8884L47.2228 45.223C47.3894 45.274 47.5626 45.3003 47.7368 45.301C48.1957 45.301 48.4986 45.0853 48.4986 44.2959V41.3726Z" fill="#444244"/>
<path d="M52.0369 45.9251L51.9819 45.558C51.8605 45.7026 51.7088 45.8187 51.5374 45.898C51.3661 45.9773 51.1794 46.0179 50.9906 46.0169C50.8575 46.0251 50.7242 46.0058 50.5989 45.9603C50.4735 45.9148 50.3589 45.844 50.2621 45.7524C50.1652 45.6607 50.0883 45.5501 50.036 45.4275C49.9837 45.3048 49.9571 45.1727 49.958 45.0394C49.958 44.2088 50.6923 43.7865 51.9084 43.7957V43.7407C51.9084 43.525 51.8212 43.167 51.2384 43.167C50.9282 43.1674 50.6238 43.2514 50.3573 43.4102L50.1921 42.8687C50.5565 42.6709 50.9661 42.5713 51.3807 42.5796C52.4362 42.5796 52.7574 43.2496 52.7574 43.9563V45.1449C52.7539 45.4088 52.7693 45.6726 52.8033 45.9343L52.0369 45.9251ZM51.9268 44.3189C51.3394 44.3189 50.7795 44.4336 50.7795 44.9293C50.7795 45.051 50.8278 45.1677 50.9139 45.2538C51 45.3398 51.1167 45.3882 51.2384 45.3882C51.3814 45.3894 51.5211 45.3458 51.638 45.2635C51.7549 45.1812 51.8431 45.0643 51.8901 44.9293C51.9065 44.8695 51.9142 44.8077 51.913 44.7457L51.9268 44.3189Z" fill="#444244"/>
<path d="M54.0746 42.6346L54.6115 44.3051C54.7012 44.5747 54.7762 44.8489 54.8364 45.1266C54.919 44.8558 54.9924 44.5988 55.0796 44.3051L55.5982 42.6346H56.4747L55.2219 45.9251H54.405L53.1797 42.6346H54.0746Z" fill="#444244"/>
<path d="M58.7877 45.9251L58.7326 45.558C58.6112 45.7026 58.4595 45.8187 58.2882 45.898C58.1168 45.9773 57.9301 46.0179 57.7413 46.0169C57.6083 46.0251 57.4749 46.0058 57.3496 45.9603C57.2243 45.9148 57.1096 45.844 57.0128 45.7524C56.916 45.6607 56.839 45.5501 56.7867 45.4275C56.7344 45.3048 56.7079 45.1727 56.7088 45.0394C56.7088 44.2088 57.443 43.7865 58.6592 43.7957V43.7407C58.6592 43.525 58.572 43.167 57.9891 43.167C57.6789 43.1674 57.3745 43.2514 57.108 43.4102L56.9428 42.8687C57.3072 42.6709 57.7168 42.5713 58.1314 42.5796C59.1869 42.5796 59.5082 43.2496 59.5082 43.9563V45.1449C59.5046 45.4088 59.52 45.6726 59.5541 45.9343L58.7877 45.9251ZM58.6775 44.3189C58.0901 44.3189 57.5302 44.4336 57.5302 44.9293C57.5302 45.051 57.5786 45.1677 57.6646 45.2538C57.7507 45.3398 57.8674 45.3882 57.9891 45.3882C58.1321 45.3894 58.2719 45.3458 58.3888 45.2635C58.5057 45.1812 58.5938 45.0643 58.6408 44.9293C58.6495 44.8684 58.6495 44.8066 58.6408 44.7457L58.6775 44.3189Z" fill="#444244"/>
<path d="M61.7753 45.021C62.1133 45.2059 62.4914 45.3052 62.8767 45.3102C63.409 45.3102 63.7073 45.0577 63.7073 44.6906C63.7073 44.3235 63.4779 44.1399 62.8996 43.9334C62.147 43.6626 61.6697 43.2634 61.6697 42.6071C61.6697 41.8637 62.2893 41.2992 63.2759 41.2992C63.6531 41.2874 64.0276 41.3661 64.3682 41.5287L64.1662 42.2216C63.8838 42.0724 63.5678 41.9982 63.2484 42.0059C62.7206 42.0059 62.4912 42.2859 62.4912 42.552C62.4912 42.9008 62.7574 43.066 63.3631 43.3001C64.1525 43.5984 64.538 43.9976 64.538 44.6493C64.538 45.379 63.9827 46.0261 62.8078 46.0261C62.3831 46.03 61.9634 45.9341 61.5825 45.7461L61.7753 45.021Z" fill="#444244"/>
<path d="M67.7228 45.8241C67.4302 45.9371 67.1187 45.9932 66.805 45.9893C66.5803 46.0061 66.3546 45.9746 66.1431 45.8969C65.9315 45.8192 65.7391 45.6972 65.5787 45.5389C65.4182 45.3807 65.2936 45.1899 65.213 44.9795C65.1324 44.769 65.0978 44.5438 65.1116 44.3189C65.1031 44.079 65.1454 43.8401 65.2357 43.6178C65.326 43.3954 65.4623 43.1947 65.6356 43.0287C65.8089 42.8628 66.0154 42.7353 66.2414 42.6547C66.4675 42.5742 66.708 42.5423 66.9473 42.5612C67.2227 42.5595 67.4956 42.6125 67.7504 42.7172L67.6035 43.3368C67.4056 43.2493 67.1912 43.2054 66.9748 43.2083C66.6924 43.2083 66.4216 43.3205 66.2219 43.5201C66.0223 43.7198 65.9101 43.9906 65.9101 44.273C65.9101 44.5554 66.0223 44.8262 66.2219 45.0258C66.4216 45.2255 66.6924 45.3377 66.9748 45.3377C67.1987 45.3414 67.4208 45.2976 67.6265 45.2092L67.7228 45.8241Z" fill="#444244"/>
<path d="M68.3378 43.6947C68.3378 43.2358 68.3378 42.9329 68.3103 42.6346H69.0354L69.0629 43.2633C69.1233 43.065 69.2443 42.8906 69.4089 42.7647C69.5736 42.6387 69.7736 42.5676 69.9808 42.5612C70.0464 42.556 70.1124 42.556 70.1781 42.5612V43.3459C70.0982 43.3281 70.0167 43.3189 69.9349 43.3184C69.7555 43.3143 69.5809 43.376 69.444 43.4918C69.307 43.6077 69.2172 43.7696 69.1914 43.9471C69.1742 44.0317 69.165 44.1178 69.1639 44.2041V45.9067H68.3332L68.3378 43.6947Z" fill="#444244"/>
<path d="M71.6283 41.7168C71.6283 41.8385 71.5799 41.9552 71.4938 42.0413C71.4078 42.1274 71.291 42.1757 71.1693 42.1757C71.108 42.1798 71.0465 42.1707 70.989 42.1491C70.9315 42.1274 70.8793 42.0938 70.8358 42.0503C70.7924 42.0069 70.7587 41.9546 70.7371 41.8971C70.7154 41.8396 70.7064 41.7781 70.7104 41.7168C70.7104 41.5951 70.7588 41.4784 70.8448 41.3923C70.9309 41.3062 71.0476 41.2579 71.1693 41.2579C71.291 41.2579 71.4078 41.3062 71.4938 41.3923C71.5799 41.4784 71.6283 41.5951 71.6283 41.7168ZM70.7425 45.9251V42.6346H71.5915V45.9251H70.7425Z" fill="#444244"/>
<path d="M72.4682 43.7314C72.4682 43.2725 72.4682 42.9467 72.4407 42.6346H73.1704L73.2117 43.144C73.3361 42.9592 73.5053 42.8088 73.7035 42.7069C73.9017 42.605 74.1224 42.5549 74.3452 42.5612C75.1024 42.5612 75.722 43.2083 75.722 44.2363C75.722 45.4249 74.9693 45.9985 74.2213 45.9985C74.0422 46.0043 73.8645 45.9653 73.7043 45.8852C73.544 45.8051 73.4063 45.6863 73.3034 45.5396V47.2422H72.4728L72.4682 43.7314ZM73.2989 44.5483C73.299 44.6256 73.3082 44.7026 73.3264 44.7778C73.3662 44.9417 73.4597 45.0875 73.5919 45.1923C73.724 45.297 73.8874 45.3547 74.0561 45.356C74.5838 45.356 74.8959 44.8971 74.8959 44.2684C74.8959 43.6901 74.6114 43.2175 74.079 43.2175C73.9036 43.2201 73.7344 43.2825 73.5992 43.3943C73.464 43.5061 73.371 43.6606 73.3356 43.8324C73.3123 43.8988 73.2999 43.9686 73.2989 44.0389V44.5483Z" fill="#444244"/>
<path d="M77.3695 41.6984V42.6163H78.1588V43.2404H77.3695V44.6906C77.3695 45.0898 77.4796 45.2964 77.7963 45.2964C77.906 45.2971 78.0154 45.2848 78.1221 45.2596V45.893C77.9272 45.951 77.7242 45.9773 77.5209 45.971C77.3898 45.9775 77.2587 45.9572 77.1356 45.9115C77.0126 45.8657 76.9001 45.7954 76.805 45.7048C76.6061 45.4425 76.5143 45.1144 76.548 44.787V43.2588H76.0891V42.6346H76.548V41.8912L77.3695 41.6984Z" fill="#444244"/>
<path d="M42.0967 55.5303C43.813 55.5303 44.6207 55.3559 44.6207 56.1177C44.6207 57.8387 44.7951 58.6464 44.0333 58.6464C42.317 58.6464 41.5047 58.8208 41.5047 58.059C41.5047 56.3426 41.3349 55.5303 42.0967 55.5303Z" fill="#514342"/>
<path d="M42.0967 48.6832C43.813 48.6832 44.6207 48.5088 44.6207 49.2706C44.6207 50.9916 44.7951 51.7993 44.0333 51.7993C42.317 51.7993 41.5047 51.9737 41.5047 51.2119C41.5047 49.4909 41.3349 48.6832 42.0967 48.6832Z" fill="#514342"/>
<path d="M42.0967 41.3864C43.813 41.3864 44.6207 41.212 44.6207 41.9738C44.6207 43.6948 44.7951 44.5025 44.0333 44.5025C42.317 44.5025 41.5047 44.6769 41.5047 43.9151C41.5047 42.1941 41.3349 41.3864 42.0967 41.3864Z" fill="#514342"/>
<path d="M42.0966 35.4066C43.813 35.4066 44.6207 35.2368 44.6207 35.9987C44.6207 37.715 44.7951 38.5227 44.0333 38.5227C42.3169 38.5227 41.5046 38.6971 41.5046 37.9353V35.9987C41.5046 35.8416 41.567 35.6911 41.678 35.58C41.7891 35.469 41.9396 35.4066 42.0966 35.4066Z" fill="#514342"/>
<path d="M42.0967 28.4173C43.813 28.4173 44.6207 28.2429 44.6207 29.0047C44.6207 30.7211 44.7951 31.5288 44.0333 31.5288C42.317 31.5288 41.5047 31.7032 41.5047 30.9413C41.5047 29.225 41.3349 28.4173 42.0967 28.4173Z" fill="#514342"/>
<g opacity="0.8">
<path opacity="0.8" d="M48.9712 28.4173C66.915 28.4173 66.9792 28.0777 66.9792 29.3031C66.9792 30.354 67.172 31.5288 66.0889 31.5288C48.1452 31.5288 48.0809 31.8684 48.0809 30.6431C48.0809 29.5922 47.8882 28.4173 48.9712 28.4173Z" fill="#514342"/>
<path opacity="0.8" d="M69.7052 28.4174C80.5403 28.4174 81.0681 28.0869 81.0681 29.3031C81.0681 30.354 81.2608 31.5288 80.1823 31.5288C69.3472 31.5288 68.8149 31.8593 68.8149 30.6431C68.8378 29.5922 68.6267 28.4174 69.7052 28.4174Z" fill="#514342"/>
<path opacity="0.8" d="M84.1979 28.4174C95.57 28.4174 96.0197 28.0915 96.0197 29.3031C96.0197 30.354 96.2079 31.5288 95.1294 31.5288C83.7619 31.5288 83.3122 31.8501 83.3122 30.6431C83.3122 29.5922 83.1194 28.4174 84.1979 28.4174Z" fill="#514342"/>
</g>
<g opacity="0.8">
<path opacity="0.8" d="M48.9714 35.4066C66.9151 35.4066 66.9794 35.067 66.9794 36.2969C66.9794 37.3433 67.1721 38.5227 66.0891 38.5227C48.1453 38.5227 48.0811 38.8623 48.0811 37.637V36.2969C48.0811 36.0608 48.1749 35.8344 48.3418 35.6674C48.5088 35.5004 48.7352 35.4066 48.9714 35.4066Z" fill="#514342"/>
<path opacity="0.8" d="M69.7054 35.4067C80.5405 35.4067 81.0683 35.0808 81.0683 36.297C81.0683 37.3433 81.2611 38.5227 80.1826 38.5227C69.3475 38.5227 68.8151 38.8532 68.8151 37.637C68.8381 36.5861 68.627 35.4067 69.7054 35.4067Z" fill="#514342"/>
<path opacity="0.8" d="M84.1982 35.4066C95.5702 35.4066 96.0199 35.0854 96.0199 36.2969C96.0199 37.3433 96.2081 38.5227 95.1296 38.5227C83.7622 38.5227 83.3124 38.8439 83.3124 37.637C83.3124 36.586 83.1197 35.4066 84.1982 35.4066Z" fill="#514342"/>
</g>
<g opacity="0.8">
<path opacity="0.8" d="M48.9712 48.6832C66.915 48.6832 66.9792 48.3436 66.9792 49.5735C66.9792 50.6198 67.172 51.7993 66.0889 51.7993C48.1452 51.7993 48.0809 52.1389 48.0809 50.9135C48.0809 49.8626 47.8882 48.6832 48.9712 48.6832Z" fill="#514342"/>
<path opacity="0.8" d="M69.7052 48.6832C80.5403 48.6832 81.0681 48.3574 81.0681 49.5735C81.0681 50.6199 81.2608 51.7993 80.1823 51.7993C69.3472 51.7993 68.8149 52.1297 68.8149 50.9136C68.8378 49.8626 68.6267 48.6832 69.7052 48.6832Z" fill="#514342"/>
<path opacity="0.8" d="M84.198 48.6832C95.57 48.6832 96.0198 48.3619 96.0198 49.5735C96.0198 50.6198 96.2079 51.7992 95.1295 51.7992C83.762 51.7992 83.3123 52.1205 83.3123 50.9135V49.5643C83.3135 49.3302 83.4073 49.1061 83.5733 48.941C83.7393 48.7759 83.9639 48.6832 84.198 48.6832Z" fill="#514342"/>
</g>
<g opacity="0.8">
<path opacity="0.8" d="M48.9713 55.5303C66.9151 55.5303 66.9793 55.1907 66.9793 56.4206C66.9793 57.4669 67.1721 58.6464 66.089 58.6464C48.1452 58.6464 48.081 58.986 48.081 57.7606V56.4481C48.0773 56.3289 48.0976 56.2102 48.1407 56.099C48.1838 55.9877 48.2488 55.8863 48.3318 55.8007C48.4149 55.7151 48.5143 55.647 48.6241 55.6006C48.734 55.5541 48.852 55.5302 48.9713 55.5303Z" fill="#514342"/>
<path opacity="0.8" d="M69.7054 55.5303C80.5405 55.5303 81.0683 55.2045 81.0683 56.4206C81.0683 57.467 81.261 58.6464 80.1826 58.6464C69.3475 58.6464 68.8151 58.9768 68.8151 57.7607V56.4482C68.8114 56.329 68.8317 56.2102 68.8748 56.099C68.9179 55.9878 68.9829 55.8864 69.0659 55.8007C69.149 55.7151 69.2484 55.6471 69.3582 55.6006C69.4681 55.5542 69.5862 55.5303 69.7054 55.5303Z" fill="#514342"/>
<path opacity="0.8" d="M84.1982 55.5303C95.5702 55.5303 96.0199 55.209 96.0199 56.4206C96.0199 57.4669 96.2081 58.6463 95.1296 58.6463C83.7622 58.6463 83.3124 58.9676 83.3124 57.7606C83.3124 56.7143 83.1197 55.5303 84.1982 55.5303Z" fill="#514342"/>
</g>
<path d="M7.6409 100.449C1.70706 100.711 8.9167 90.6653 4.88738 56.2508C4.88399 56.2164 4.88811 56.1817 4.89947 56.149C4.91082 56.1164 4.92914 56.0866 4.95314 56.0617C4.97715 56.0368 5.00627 56.0175 5.0385 56.005C5.07072 55.9924 5.10528 55.9871 5.13979 55.9892C30.463 57.6092 45.41 58.0819 71.3161 55.9892C71.3499 55.9865 71.384 55.9911 71.4159 56.0028C71.4478 56.0145 71.4767 56.033 71.5007 56.057C71.5247 56.081 71.5433 56.11 71.555 56.1419C71.5667 56.1738 71.5713 56.2078 71.5685 56.2417C70.4533 71.7348 70.1458 81.8907 71.3666 97.7923C71.7704 103.212 66.7911 97.8611 7.6409 100.449Z" fill="white"/>
<path d="M7.42547 100.716C7.10823 100.742 6.78899 100.701 6.48852 100.596C6.18806 100.491 5.91311 100.324 5.68157 100.105C4.65359 99.0405 4.85552 96.567 5.22265 92.0833C5.77795 85.3601 6.70956 74.112 4.61688 56.2875C4.60808 56.2153 4.61546 56.142 4.63848 56.0729C4.6615 56.0039 4.69958 55.9408 4.74997 55.8883C4.8002 55.8363 4.86107 55.7959 4.92841 55.7698C4.99575 55.7436 5.06795 55.7324 5.14005 55.7368C31.1654 57.4027 46.1079 57.7698 71.2842 55.7368C71.3551 55.7289 71.4269 55.7377 71.4938 55.7624C71.5607 55.7871 71.6209 55.827 71.6697 55.8791C71.7212 55.9285 71.7611 55.9887 71.7865 56.0553C71.8119 56.122 71.8222 56.1935 71.8166 56.2646C70.706 71.6981 70.3893 81.8448 71.6101 97.7785C71.6697 98.522 71.656 99.2792 71.1511 99.7886C70.2058 100.775 67.7551 100.679 61.2109 100.417C52.5832 100.078 36.5256 99.4444 7.64116 100.711L7.42547 100.716ZM5.13087 56.2508C7.22355 74.1166 6.29194 85.3877 5.73664 92.1246C5.37869 96.4614 5.18135 98.8478 6.04412 99.7473C6.25848 99.9333 6.51061 100.071 6.78314 100.15C7.05567 100.229 7.34213 100.248 7.62281 100.206C36.5348 98.9396 52.597 99.5729 61.2339 99.9125C67.4339 100.16 69.9993 100.261 70.784 99.4536C71.0685 99.1553 71.1557 98.7055 71.0915 97.8428C69.8662 81.8861 70.1736 71.721 71.2888 56.2783C46.117 58.2838 31.1654 57.9167 5.14005 56.2508H5.13087Z" fill="#EEE4D9"/>
<path d="M68.9849 53.5157C14.1531 56.6317 4.84619 50.2757 4.84619 55.9893C30.8211 57.5634 45.2908 58.1783 71.5824 55.9893C71.5841 55.6533 71.5172 55.3206 71.3856 55.0115C71.2541 54.7024 71.0608 54.4235 70.8175 54.1918C70.5743 53.9602 70.2862 53.7807 69.9711 53.6644C69.6559 53.5482 69.3203 53.4975 68.9849 53.5157Z" fill="#444244"/>
<path d="M40.417 57.6597C29.279 57.6597 18.6734 57.0723 4.83233 56.2324H4.5891V55.9892C4.56073 55.6552 4.6033 55.319 4.71403 55.0027C4.82475 54.6863 5.00113 54.3969 5.23159 54.1535C6.42019 53.0246 9.21961 53.176 15.9795 53.534C24.7862 53.9929 41.1788 54.874 68.971 53.2954C69.34 53.2748 69.7092 53.3296 70.0562 53.4566C70.4032 53.5836 70.7206 53.7801 70.9891 54.0339C71.2576 54.2878 71.4714 54.5938 71.6176 54.9331C71.7638 55.2725 71.8392 55.6381 71.8393 56.0076V56.2462H71.6006C59.375 57.2512 49.7101 57.6597 40.417 57.6597ZM5.11227 55.7276C30.2473 57.2513 44.7125 57.935 71.3069 55.7276C71.2456 55.1707 70.974 54.6582 70.5475 54.2949C70.121 53.9315 69.5719 53.7447 69.0123 53.7726C41.1926 55.3513 24.7816 54.4794 15.9657 54.0113C9.74736 53.6809 6.62671 53.5156 5.60331 54.4702C5.44072 54.6357 5.31338 54.8325 5.22898 55.0486C5.14458 55.2647 5.10488 55.4957 5.11227 55.7276Z" fill="#444244"/>
<path d="M68.1542 55.6863C69.0721 55.6221 69.4209 55.6863 69.3979 55.3421C69.352 54.6905 69.3979 54.3279 69.0675 54.3509C68.1496 54.4151 67.8009 54.3509 67.8238 54.6951L67.8743 55.4431C67.8766 55.4775 67.8857 55.5111 67.9011 55.5419C67.9164 55.5728 67.9377 55.6003 67.9637 55.6229C67.9897 55.6455 68.02 55.6627 68.0526 55.6736C68.0853 55.6845 68.1199 55.6888 68.1542 55.6863Z" fill="#BEC0C2"/>
<path d="M68.1909 55.5303C68.1736 55.5302 68.1564 55.5265 68.1406 55.5194C68.1248 55.5123 68.1107 55.5019 68.0991 55.489C68.0869 55.477 68.0772 55.4627 68.0706 55.447C68.064 55.4312 68.0605 55.4143 68.0605 55.3972C68.0605 55.3801 68.064 55.3632 68.0706 55.3474C68.0772 55.3317 68.0869 55.3174 68.0991 55.3054L68.9344 54.5069C68.9463 54.4947 68.9606 54.485 68.9764 54.4784C68.9921 54.4717 69.009 54.4683 69.0261 54.4683C69.0432 54.4683 69.0602 54.4717 69.0759 54.4784C69.0917 54.485 69.106 54.4947 69.1179 54.5069C69.1301 54.5189 69.1398 54.5331 69.1465 54.5489C69.1531 54.5647 69.1565 54.5816 69.1565 54.5987C69.1565 54.6158 69.1531 54.6327 69.1465 54.6485C69.1398 54.6642 69.1301 54.6785 69.1179 54.6905L68.2827 55.5303C68.2532 55.542 68.2204 55.542 68.1909 55.5303Z" fill="white"/>
<path d="M69.0812 55.489C69.0556 55.4956 69.0288 55.4956 69.0032 55.489L68.0853 54.8098C68.057 54.7895 68.0378 54.7589 68.0318 54.7246C68.0258 54.6902 68.0335 54.6549 68.0532 54.6262C68.0632 54.612 68.076 54.6001 68.0907 54.591C68.1055 54.5819 68.122 54.5758 68.1391 54.5733C68.1563 54.5707 68.1738 54.5716 68.1905 54.576C68.2073 54.5804 68.2231 54.5881 68.2368 54.5987L69.1546 55.2779C69.1685 55.2875 69.1803 55.2998 69.1894 55.314C69.1986 55.3282 69.2048 55.3441 69.2078 55.3607C69.2108 55.3773 69.2104 55.3944 69.2068 55.4109C69.2032 55.4274 69.1964 55.443 69.1867 55.4569C69.1725 55.4695 69.1557 55.4788 69.1375 55.4844C69.1192 55.4899 69.1001 55.4915 69.0812 55.489Z" fill="white"/>
<path d="M12.6479 74.1028C13.2074 74.009 13.7742 73.966 14.3414 73.9743C14.9776 73.9245 15.6111 74.1 16.1312 74.4699C16.3237 74.6351 16.4771 74.841 16.5803 75.0728C16.6834 75.3046 16.7338 75.5564 16.7278 75.81C16.7403 76.0631 16.7003 76.3162 16.6103 76.5531C16.5203 76.7901 16.3821 77.0058 16.2046 77.1867C15.6746 77.6454 14.9858 77.8777 14.2863 77.8338C14.1051 77.8374 13.9239 77.8251 13.7448 77.7971V80.0917H12.6479V74.1028ZM13.7677 76.9297C13.9457 76.9672 14.1275 76.9826 14.3092 76.9756C15.1399 76.9756 15.6447 76.5672 15.6447 75.8559C15.6447 75.1445 15.1445 74.8049 14.3873 74.8049C14.1719 74.7997 13.9566 74.8166 13.7448 74.8554L13.7677 76.9297Z" fill="#D6723A"/>
<path d="M18.3844 75.7228L19.1783 78.0724C19.2701 78.3432 19.3573 78.6782 19.4215 78.926H19.449C19.5179 78.6782 19.6005 78.3524 19.6831 78.0633L20.3669 75.7228H21.5693L20.4724 78.7103C19.8667 80.3533 19.4628 81.0784 18.9396 81.5327C18.6167 81.8312 18.2128 82.0276 17.7786 82.0972L17.5262 81.1793C17.7597 81.1197 17.9795 81.0152 18.1732 80.8719C18.4278 80.6928 18.6356 80.4551 18.779 80.1789C18.8168 80.1193 18.8404 80.0518 18.8479 79.9816C18.8445 79.9061 18.8241 79.8323 18.7882 79.7659L17.1682 75.7228H18.3844Z" fill="#D6723A"/>
<path d="M23.4645 74.4516V75.7228H24.52V76.5489H23.4645V78.4763C23.4645 79.0087 23.6113 79.2886 24.0335 79.2886C24.1791 79.2898 24.3242 79.2713 24.4649 79.2335V80.0826C24.2046 80.1605 23.9334 80.1961 23.6618 80.1881C23.4867 80.1967 23.3117 80.1694 23.1475 80.1078C22.9833 80.0463 22.8335 79.9518 22.7072 79.8301C22.4447 79.4786 22.3235 79.0414 22.3676 78.6048V76.5397H21.7527V75.7228H22.386V74.7132L23.4645 74.4516Z" fill="#D6723A"/>
<path d="M25.3555 73.6943H26.4752V76.3056C26.6232 76.0972 26.8161 75.9247 27.0397 75.8008C27.2706 75.6702 27.5316 75.6022 27.7969 75.6034C28.545 75.6034 29.3297 76.0991 29.3297 77.5034V80.0917H28.2191V77.6319C28.2191 76.994 27.9851 76.5167 27.3747 76.5167C27.186 76.5197 27.0028 76.5807 26.85 76.6916C26.6973 76.8025 26.5824 76.9577 26.5211 77.1362C26.4852 77.2441 26.4697 77.3577 26.4752 77.4712V80.0917H25.3555V73.6943Z" fill="#D6723A"/>
<path d="M34.6806 77.8568C34.7028 78.162 34.6603 78.4684 34.556 78.7561C34.4517 79.0437 34.2878 79.3062 34.0752 79.5262C33.8625 79.7462 33.6058 79.9189 33.3218 80.0329C33.0379 80.147 32.7331 80.1999 32.4273 80.1881C32.1304 80.1997 31.8344 80.1487 31.5585 80.0385C31.2825 79.9283 31.0328 79.7614 30.8256 79.5485C30.6183 79.3356 30.4581 79.0815 30.3553 78.8027C30.2526 78.5239 30.2096 78.2267 30.2291 77.9302C30.2059 77.6234 30.2482 77.3152 30.3534 77.0261C30.4586 76.737 30.6242 76.4736 30.8391 76.2535C31.054 76.0333 31.3134 75.8615 31.5999 75.7494C31.8864 75.6374 32.1935 75.5876 32.5007 75.6035C32.7963 75.5924 33.0908 75.6437 33.3652 75.7541C33.6396 75.8644 33.8877 76.0313 34.0933 76.2438C34.299 76.4564 34.4575 76.7099 34.5587 76.9878C34.6599 77.2657 34.7014 77.5618 34.6806 77.8568ZM31.3718 77.9027C31.3718 78.7471 31.7894 79.3896 32.464 79.3896C33.1386 79.3896 33.5333 78.7654 33.5333 77.8843C33.5333 77.2005 33.2304 76.4158 32.4732 76.4158C31.716 76.4158 31.3718 77.173 31.3718 77.9027Z" fill="#D6723A"/>
<path d="M35.5892 77.0078C35.5892 76.5076 35.5892 76.0899 35.5525 75.7044H36.5254L36.5805 76.3607H36.608C36.7517 76.1256 36.9544 75.9321 37.1958 75.7993C37.4373 75.6665 37.7092 75.599 37.9848 75.6035C38.7512 75.6035 39.5405 76.0991 39.5405 77.4851V80.0917H38.4529V77.6136C38.4529 76.9848 38.2188 76.5076 37.6176 76.5076C37.4231 76.5096 37.2343 76.5734 37.0784 76.6897C36.9226 76.806 36.8076 76.9688 36.7503 77.1546C36.7152 77.2706 36.6997 77.3915 36.7044 77.5126V80.0917H35.5892V77.0078Z" fill="#D6723A"/>
<g opacity="0.7">
<path opacity="0.7" d="M20.4035 66.6867C8.98093 66.6867 8.58167 67.0034 8.58167 65.8285C8.58167 64.9382 8.40728 63.8139 9.43985 63.8139C20.867 63.8139 21.2616 63.4972 21.2616 64.6721C21.2616 65.5624 21.436 66.6867 20.4035 66.6867Z" fill="#D6723A"/>
<path opacity="0.7" d="M35.9334 66.6867C24.5063 66.6867 24.107 67.0034 24.107 65.8285C24.107 64.9382 23.9326 63.8139 24.9698 63.8139C36.3923 63.8139 36.7915 63.4972 36.7915 64.6721C36.7915 65.5624 36.9659 66.6867 35.9334 66.6867Z" fill="#D6723A"/>
<path opacity="0.7" d="M51.4586 66.6867C40.0361 66.6867 39.6369 67.0034 39.6369 65.8285C39.6369 64.9382 39.4625 63.8139 40.495 63.8139C51.9221 63.8139 52.3214 63.4972 52.3214 64.6721V65.8285C52.3202 66.0566 52.2288 66.2748 52.0671 66.4356C51.9054 66.5964 51.6867 66.6867 51.4586 66.6867Z" fill="#D6723A"/>
<path opacity="0.7" d="M67.0023 66.6867C55.5752 66.6867 55.1806 67.0034 55.1806 65.8285C55.1806 64.9382 55.0062 63.8139 56.0387 63.8139C67.4613 63.8139 67.8605 63.4972 67.8605 64.6721C67.8468 65.5624 68.0211 66.6867 67.0023 66.6867Z" fill="#D6723A"/>
</g>
<g opacity="0.7">
<path opacity="0.7" d="M20.4035 71.5604C8.98093 71.5604 8.58167 71.8724 8.58167 70.6976C8.58167 69.8073 8.40728 68.6829 9.43985 68.6829C20.867 68.6829 21.2616 68.3709 21.2616 69.5457C21.2616 70.436 21.436 71.5604 20.4035 71.5604Z" fill="#D6723A"/>
<path opacity="0.7" d="M35.9334 71.5604C24.5063 71.5604 24.107 71.8724 24.107 70.6976C24.107 69.8073 23.9326 68.6829 24.9698 68.6829C36.3923 68.6829 36.7915 68.3709 36.7915 69.5457C36.7915 70.436 36.9659 71.5604 35.9334 71.5604Z" fill="#D6723A"/>
<path opacity="0.7" d="M51.4586 71.5603C40.0361 71.5603 39.6369 71.8724 39.6369 70.6976C39.6369 69.8073 39.4625 68.6829 40.495 68.6829H51.4586C51.6875 68.6829 51.9069 68.7738 52.0687 68.9356C52.2305 69.0974 52.3214 69.3169 52.3214 69.5457V70.6976C52.3214 70.9264 52.2305 71.1459 52.0687 71.3077C51.9069 71.4695 51.6875 71.5603 51.4586 71.5603Z" fill="#D6723A"/>
<path opacity="0.7" d="M67.0023 71.5604C55.5752 71.5604 55.1806 71.8724 55.1806 70.6976C55.1806 69.8073 55.0062 68.6829 56.0387 68.6829C67.4613 68.6829 67.8605 68.3709 67.8605 69.5457C67.8468 70.436 68.0211 71.5604 67.0023 71.5604Z" fill="#D6723A"/>
<path opacity="0.7" d="M67.0023 78.8618C55.5752 78.8618 55.1806 79.1785 55.1806 78.0036C55.1806 77.1133 55.0062 75.989 56.0387 75.989C67.4613 75.989 67.8605 75.6769 67.8605 76.8518C67.8468 77.7421 68.0211 78.8618 67.0023 78.8618Z" fill="#D6723A"/>
</g>
<g opacity="0.7">
<path opacity="0.7" d="M20.4035 86.1678C8.98093 86.1678 8.58167 86.4845 8.58167 85.3097C8.58167 84.4194 8.40728 83.295 9.43985 83.295C20.867 83.295 21.2616 82.9829 21.2616 84.1578C21.2616 85.0481 21.436 86.1678 20.4035 86.1678Z" fill="#D6723A"/>
<path opacity="0.7" d="M35.9334 86.1678C24.5063 86.1678 24.107 86.4845 24.107 85.3097C24.107 84.4194 23.9326 83.295 24.9698 83.295C36.3923 83.295 36.7915 82.9829 36.7915 84.1578V85.3097C36.7915 85.5373 36.7011 85.7556 36.5402 85.9165C36.3793 86.0774 36.161 86.1678 35.9334 86.1678Z" fill="#D6723A"/>
<path opacity="0.7" d="M51.4586 86.1678C40.0361 86.1678 39.6369 86.4845 39.6369 85.3097C39.6369 84.4194 39.4625 83.295 40.495 83.295C51.9221 83.295 52.3214 82.9829 52.3214 84.1578V85.3097C52.3214 85.4228 52.2991 85.5347 52.2556 85.6391C52.2122 85.7436 52.1486 85.8384 52.0684 85.9181C51.9883 85.9979 51.8931 86.061 51.7885 86.1038C51.6838 86.1467 51.5717 86.1685 51.4586 86.1678Z" fill="#D6723A"/>
<path opacity="0.7" d="M67.0023 86.1678C55.5752 86.1678 55.1806 86.4845 55.1806 85.3097C55.1806 84.4194 55.0062 83.295 56.0387 83.295C67.4613 83.295 67.8605 82.9829 67.8605 84.1578C67.8468 85.0481 68.0211 86.1678 67.0023 86.1678Z" fill="#D6723A"/>
</g>
<g opacity="0.7">
<path opacity="0.7" d="M20.4035 91.0416C8.98093 91.0416 8.58167 91.3536 8.58167 90.1788C8.58167 89.2885 8.40728 88.1687 9.43985 88.1687C20.867 88.1687 21.2616 87.8521 21.2616 89.0269C21.2616 89.9172 21.436 91.0416 20.4035 91.0416Z" fill="#D6723A"/>
<path opacity="0.7" d="M35.9334 91.0416C24.5063 91.0416 24.107 91.3536 24.107 90.1788C24.107 89.2885 23.9326 88.1687 24.9698 88.1687C36.3923 88.1687 36.7915 87.8521 36.7915 89.0269C36.7915 89.9172 36.9659 91.0416 35.9334 91.0416Z" fill="#D6723A"/>
<path opacity="0.7" d="M51.4586 91.0416C40.0361 91.0416 39.6369 91.3536 39.6369 90.1788C39.6369 89.2885 39.4625 88.1687 40.495 88.1687C51.9221 88.1687 52.3214 87.8521 52.3214 89.0269C52.3168 89.9172 52.4958 91.0416 51.4586 91.0416Z" fill="#D6723A"/>
<path opacity="0.7" d="M67.0023 91.0416C55.5752 91.0416 55.1806 91.3536 55.1806 90.1788C55.1806 89.2885 55.0062 88.1687 56.0387 88.1687C67.4613 88.1687 67.8605 87.8521 67.8605 89.0269C67.8468 89.9172 68.0211 91.0416 67.0023 91.0416Z" fill="#D6723A"/>
</g>
<g opacity="0.7">
<path opacity="0.7" d="M20.4035 95.9153C8.98093 95.9153 8.58167 96.2319 8.58167 95.0571C8.58167 94.1668 8.40728 93.0424 9.43985 93.0424C20.867 93.0424 21.2616 92.7258 21.2616 93.9006C21.2616 94.7863 21.436 95.9153 20.4035 95.9153Z" fill="#D6723A"/>
<path opacity="0.7" d="M35.9334 95.9153C24.5063 95.9153 24.107 96.2319 24.107 95.0571C24.107 94.1668 23.9326 93.0424 24.9698 93.0424C36.3923 93.0424 36.7915 92.7258 36.7915 93.9006V95.0571C36.7915 95.2847 36.7011 95.503 36.5402 95.6639C36.3793 95.8249 36.161 95.9153 35.9334 95.9153Z" fill="#D6723A"/>
<path opacity="0.7" d="M51.4586 95.9153C40.0361 95.9153 39.6369 96.2319 39.6369 95.0571C39.6369 94.1668 39.4625 93.0424 40.495 93.0424C51.9221 93.0424 52.3214 92.7258 52.3214 93.9006C52.3168 94.7863 52.4958 95.9153 51.4586 95.9153Z" fill="#D6723A"/>
<path opacity="0.7" d="M67.0023 95.9153C55.5752 95.9153 55.1806 96.2319 55.1806 95.0571C55.1806 94.1668 55.0062 93.0424 56.0387 93.0424C67.4613 93.0424 67.8605 92.7258 67.8605 93.9006C67.8468 94.7863 68.0211 95.9153 67.0023 95.9153Z" fill="#D6723A"/>
</g>
<path d="M92.3441 115.837C90.3156 115.277 90.926 117.879 90.926 58.059C90.926 58.059 128.227 67.5311 148.291 58.059V114.272C148.296 118.554 124.941 124.882 92.3441 115.837Z" fill="white"/>
<path d="M124.152 120.637C115.308 120.637 104.459 119.412 92.2889 116.048L92.0686 115.993C90.5863 115.658 90.5863 115.658 90.6643 90.5505C90.6873 82.7259 90.7194 72.0101 90.7194 58.0727V57.8111L90.9764 57.8754C97.9275 59.5209 104.98 60.7059 112.087 61.4228C122.858 62.5013 137.86 62.7629 148.185 57.8891L148.475 57.7515V114.272C148.475 114.91 148.043 115.566 147.194 116.213C144.312 118.402 136.052 120.637 124.152 120.637ZM92.3991 115.649C120.811 123.533 141.962 119.692 146.969 115.883C147.704 115.328 148.094 114.768 148.094 114.268V58.3756C137.694 63.1484 122.784 62.8868 112.064 61.8129C105.017 61.1012 98.0235 59.9331 91.1279 58.3159C91.1279 72.1294 91.0957 82.7626 91.0682 90.5367C90.9948 114.86 91.0131 115.318 92.1604 115.585L92.3991 115.649Z" fill="#EEE4D9"/>
<path d="M145.592 56.2738C128.727 63.2769 101.499 57.5771 93.3213 55.5991C92.454 55.3926 90.9258 55.6818 90.9258 58.059C90.9258 58.059 129.186 67.5311 148.291 58.059C148.289 57.739 148.209 57.4244 148.057 57.1429C147.905 56.8614 147.685 56.6218 147.419 56.4453C147.152 56.2688 146.846 56.1607 146.527 56.1308C146.208 56.1009 145.887 56.15 145.592 56.2738Z" fill="#444244"/>
<path d="M124.826 62.46C120.453 62.46 116.194 62.1846 112.435 61.8129C105.177 61.0889 97.9727 59.9009 90.8662 58.2563L90.7102 58.2196V58.0589C90.7102 56.9897 91.0085 56.2233 91.5867 55.7643C91.8381 55.5792 92.127 55.4516 92.4331 55.3905C92.7393 55.3294 93.055 55.3364 93.3582 55.411C101.339 57.3384 128.695 63.0841 145.505 56.0948C145.834 55.9567 146.192 55.9025 146.547 55.9369C146.902 55.9713 147.242 56.0934 147.538 56.2921C147.831 56.4864 148.071 56.7504 148.237 57.0604C148.403 57.3704 148.489 57.7166 148.488 58.0681V58.192L148.378 58.2517C141.884 61.4641 133.147 62.46 124.826 62.46ZM91.1324 57.8983C93.8263 58.5408 129.847 66.8656 148.094 57.935C148.077 57.6711 147.999 57.4148 147.866 57.1862C147.733 56.9577 147.548 56.7631 147.327 56.6179C147.086 56.4571 146.809 56.3587 146.521 56.3314C146.232 56.3042 145.942 56.349 145.675 56.4619C139.608 58.9814 132.192 59.8579 124.808 59.8579C111.568 59.8579 98.4201 57.0401 93.2802 55.7965C93.0363 55.7351 92.782 55.7284 92.5352 55.7768C92.2885 55.8252 92.0555 55.9275 91.8529 56.0764C91.605 56.3076 91.4113 56.591 91.2859 56.906C91.1606 57.221 91.1066 57.5599 91.1278 57.8983H91.1324Z" fill="#444244"/>
<path d="M145.579 58.3114C146.446 57.9809 146.79 57.9305 146.671 57.6184C146.437 57.008 146.377 56.6455 146.065 56.7648C145.198 57.0952 144.858 57.1457 144.977 57.4624C145.207 58.0681 145.271 58.4307 145.579 58.3114Z" fill="#BEC0C2"/>
<path d="M145.537 58.1737C145.518 58.1797 145.497 58.1797 145.478 58.1737C145.463 58.166 145.449 58.1553 145.438 58.1421C145.427 58.129 145.419 58.1138 145.415 58.0975C145.41 58.0811 145.409 58.0639 145.411 58.047C145.413 58.0301 145.419 58.0139 145.427 57.9993L145.992 56.9896C146.008 56.9592 146.036 56.9366 146.069 56.9267C146.102 56.9168 146.138 56.9204 146.168 56.9369C146.199 56.9533 146.222 56.9811 146.231 57.0143C146.241 57.0474 146.238 57.0831 146.221 57.1135L145.652 58.1278C145.638 58.1441 145.62 58.1568 145.6 58.1648C145.58 58.1728 145.559 58.1759 145.537 58.1737Z" fill="white"/>
<path d="M146.396 57.8571H146.35L145.257 57.4807C145.225 57.4702 145.199 57.4475 145.183 57.4174C145.168 57.3873 145.165 57.3524 145.175 57.3201C145.18 57.3037 145.188 57.2885 145.2 57.2753C145.211 57.2622 145.225 57.2515 145.24 57.2438C145.255 57.2361 145.272 57.2316 145.289 57.2305C145.307 57.2294 145.324 57.2318 145.34 57.2375L146.437 57.6138C146.453 57.6189 146.468 57.6274 146.481 57.6386C146.494 57.6499 146.505 57.6637 146.512 57.6793C146.52 57.6948 146.524 57.7117 146.524 57.7289C146.525 57.746 146.521 57.7631 146.515 57.779C146.505 57.8024 146.488 57.8222 146.467 57.8361C146.446 57.85 146.421 57.8573 146.396 57.8571Z" fill="white"/>
<path d="M123.349 79.3941C122.976 79.5432 122.575 79.612 122.174 79.596C121.865 79.622 121.554 79.5808 121.262 79.475C120.97 79.3693 120.705 79.2016 120.484 78.9836C120.264 78.7655 120.093 78.5022 119.984 78.2119C119.874 77.9215 119.829 77.6109 119.852 77.3014C119.836 76.979 119.888 76.6569 120.005 76.356C120.122 76.0551 120.301 75.7822 120.53 75.5553C120.76 75.3283 121.035 75.1523 121.337 75.0388C121.639 74.9254 121.962 74.8769 122.284 74.8967C122.663 74.8833 123.04 74.9522 123.39 75.0986L123.211 75.7641C122.921 75.6393 122.608 75.5782 122.293 75.5851C122.074 75.5733 121.854 75.6092 121.65 75.6904C121.446 75.7715 121.262 75.896 121.111 76.0553C120.959 76.2145 120.844 76.4047 120.773 76.6127C120.703 76.8207 120.678 77.0416 120.701 77.2601C120.679 77.4766 120.705 77.6951 120.776 77.9006C120.847 78.1061 120.962 78.2936 121.114 78.45C121.265 78.6064 121.448 78.728 121.651 78.8062C121.854 78.8845 122.072 78.9175 122.289 78.9031C122.603 78.9088 122.915 78.8511 123.206 78.7333L123.349 79.3941Z" fill="#444244"/>
<path d="M125.868 75.9523V77.4805H127.332V78.0174H125.868V79.5548H125.313V78.0174H123.849V77.4897H125.313V75.9523H125.868Z" fill="#444244"/>
<path d="M129.874 75.9523V77.4805H131.338V78.0174H129.874V79.5548H129.319V78.0174H127.855V77.4897H129.319V75.9523H129.874Z" fill="#444244"/>
<path d="M121.825 89.0314C122.384 88.9377 122.951 88.8947 123.518 88.9029C124.154 88.8559 124.787 89.0311 125.308 89.3986C125.501 89.5643 125.655 89.7709 125.758 90.0035C125.861 90.2361 125.912 90.4888 125.905 90.7432C125.917 90.9964 125.877 91.2494 125.787 91.4864C125.697 91.7233 125.559 91.9391 125.382 92.12C124.852 92.5786 124.163 92.8109 123.463 92.7671C123.282 92.7707 123.101 92.7584 122.922 92.7303V95.0249H121.825V89.0314ZM122.922 91.8584C123.1 91.8958 123.282 91.9113 123.463 91.9043C124.289 91.9043 124.794 91.5004 124.794 90.7891C124.794 90.0778 124.335 89.752 123.56 89.752C123.346 89.7477 123.132 89.7662 122.922 89.807V91.8584Z" fill="#D6723A"/>
<path d="M127.965 88.9626V91.3949H130.535V88.9626H131.641V95.0342H130.535V92.3587H127.965V95.0342H126.859V88.9626H127.965Z" fill="#D6723A"/>
<path d="M132.913 89.0314C133.472 88.9377 134.039 88.8947 134.606 88.9029C135.242 88.8559 135.875 89.0311 136.396 89.3986C136.589 89.5643 136.743 89.7709 136.846 90.0035C136.949 90.2361 136.999 90.4888 136.992 90.7432C137.005 90.9964 136.965 91.2494 136.875 91.4864C136.785 91.7233 136.647 91.9391 136.469 92.12C135.939 92.5786 135.25 92.8109 134.551 92.7671C134.37 92.7707 134.189 92.7584 134.009 92.7303V95.0249H132.913V89.0314ZM134.009 91.8584C134.187 91.8958 134.369 91.9113 134.551 91.9043C135.382 91.9043 135.882 91.5004 135.882 90.7891C135.882 90.0778 135.423 89.752 134.652 89.752C134.436 89.7475 134.221 89.766 134.009 89.807V91.8584Z" fill="#D6723A"/>
<path d="M134.634 109.821C134.26 109.969 133.86 110.038 133.459 110.023C133.149 110.049 132.838 110.009 132.546 109.903C132.254 109.798 131.988 109.63 131.767 109.412C131.547 109.194 131.376 108.93 131.267 108.639C131.158 108.348 131.113 108.038 131.137 107.728C131.12 107.405 131.173 107.083 131.289 106.782C131.406 106.482 131.585 106.209 131.815 105.982C132.045 105.755 132.319 105.579 132.622 105.465C132.924 105.352 133.247 105.303 133.569 105.323C133.948 105.31 134.325 105.379 134.675 105.525L134.491 106.186C134.209 106.068 133.906 106.009 133.601 106.012C133.382 106 133.162 106.036 132.958 106.117C132.754 106.198 132.57 106.322 132.418 106.482C132.267 106.641 132.152 106.831 132.081 107.039C132.01 107.247 131.986 107.468 132.009 107.687C131.987 107.903 132.012 108.121 132.083 108.327C132.155 108.532 132.27 108.719 132.421 108.875C132.573 109.031 132.756 109.152 132.959 109.23C133.162 109.308 133.38 109.34 133.596 109.325C133.91 109.332 134.222 109.276 134.514 109.16L134.634 109.821Z" fill="#444244"/>
<path d="M135.491 109.958L135.666 108.701H135.111V108.173H135.748L135.868 107.315H135.29V106.796H135.941L136.12 105.566H136.625L136.455 106.796H137.111L137.286 105.566H137.795L137.625 106.796H138.172V107.315H137.543L137.428 108.173H137.997V108.696H137.341L137.171 109.958H136.653L136.827 108.696H136.18L136.005 109.958H135.491ZM136.914 108.173L137.029 107.315H136.377L136.262 108.173H136.914Z" fill="#444244"/>
<g opacity="0.8">
<path opacity="0.8" d="M115.07 65.5393H105.056C104.623 65.5393 104.271 65.8907 104.271 66.3241V67.3796C104.271 67.813 104.623 68.1643 105.056 68.1643H115.07C115.503 68.1643 115.854 67.813 115.854 67.3796V66.3241C115.854 65.8907 115.503 65.5393 115.07 65.5393Z" fill="#9EBFD8"/>
<path opacity="0.8" d="M128.241 68.1643C117.8 68.1643 117.442 68.4535 117.442 67.3796C117.442 66.5857 117.277 65.5439 118.227 65.5439C128.663 65.5439 129.025 65.2594 129.025 66.3287C129.025 67.118 129.186 68.1643 128.241 68.1643Z" fill="#D6723A"/>
<path opacity="0.8" d="M141.407 68.1643C130.971 68.1643 130.609 68.4535 130.609 67.3796C130.609 66.5857 130.448 65.5439 131.393 65.5439C141.834 65.5439 142.196 65.2594 142.196 66.3287C142.196 67.118 142.357 68.1643 141.407 68.1643Z" fill="#9EBFD8"/>
</g>
<g opacity="0.8">
<path opacity="0.8" d="M115.07 71.0372H105.056C104.623 71.0372 104.271 71.3885 104.271 71.8219V72.8774C104.271 73.3109 104.623 73.6622 105.056 73.6622H115.07C115.503 73.6622 115.854 73.3109 115.854 72.8774V71.8219C115.854 71.3885 115.503 71.0372 115.07 71.0372Z" fill="#9EBFD8"/>
<path opacity="0.8" d="M128.241 73.6622C117.8 73.6622 117.442 73.9513 117.442 72.8775C117.442 72.0835 117.277 71.0418 118.227 71.0418C128.663 71.0418 129.025 70.7572 129.025 71.8265C129.025 72.6159 129.186 73.6622 128.241 73.6622Z" fill="#9EBFD8"/>
</g>
<path opacity="0.8" d="M115.07 76.5351H105.056C104.623 76.5351 104.271 76.8864 104.271 77.3198V78.3754C104.271 78.8088 104.623 79.1601 105.056 79.1601H115.07C115.503 79.1601 115.854 78.8088 115.854 78.3754V77.3198C115.854 76.8864 115.503 76.5351 115.07 76.5351Z" fill="#9EBFD8"/>
<g opacity="0.8">
<path opacity="0.8" d="M115.07 84.658C104.634 84.658 104.271 84.9471 104.271 83.8732C104.271 83.0793 104.111 82.0376 105.056 82.0376C115.497 82.0376 115.859 81.753 115.859 82.8223V83.8778C115.858 83.9809 115.838 84.0828 115.798 84.1778C115.758 84.2728 115.699 84.359 115.626 84.4314C115.553 84.5038 115.466 84.5611 115.37 84.6C115.275 84.6389 115.173 84.6586 115.07 84.658Z" fill="#9EBFD8"/>
<path opacity="0.8" d="M128.241 82.033H118.227C117.793 82.033 117.442 82.3843 117.442 82.8177V83.8732C117.442 84.3066 117.793 84.658 118.227 84.658H128.241C128.674 84.658 129.025 84.3066 129.025 83.8732V82.8177C129.025 82.3843 128.674 82.033 128.241 82.033Z" fill="#9EBFD8"/>
<path opacity="0.8" d="M141.407 84.658C130.971 84.658 130.609 84.9471 130.609 83.8732C130.609 83.0793 130.448 82.0376 131.393 82.0376C141.834 82.0376 142.196 81.753 142.196 82.8223C142.196 83.6117 142.357 84.658 141.407 84.658Z" fill="#9EBFD8"/>
</g>
<path opacity="0.8" d="M115.07 90.1558C104.634 90.1558 104.271 90.445 104.271 89.3711C104.271 88.5771 104.111 87.5354 105.056 87.5354H115.07C115.278 87.5354 115.478 87.6179 115.626 87.765C115.774 87.912 115.858 88.1116 115.859 88.3202V89.3757C115.858 89.4787 115.838 89.5806 115.798 89.6756C115.758 89.7706 115.699 89.8568 115.626 89.9292C115.553 90.0017 115.466 90.059 115.37 90.0979C115.275 90.1367 115.173 90.1564 115.07 90.1558Z" fill="#514342"/>
<path opacity="0.8" d="M115.07 95.6537C104.634 95.6537 104.271 95.9428 104.271 94.869C104.271 94.075 104.111 93.0333 105.056 93.0333C115.497 93.0333 115.859 92.7488 115.859 93.8226V94.8735C115.858 94.9766 115.838 95.0785 115.798 95.1735C115.758 95.2685 115.699 95.3547 115.626 95.4271C115.553 95.4996 115.466 95.5569 115.37 95.5957C115.275 95.6346 115.173 95.6543 115.07 95.6537Z" fill="#514342"/>
<g opacity="0.8">
<path opacity="0.8" d="M115.07 101.152C104.634 101.152 104.271 101.441 104.271 100.367C104.271 99.5729 104.111 98.5311 105.056 98.5311C115.497 98.5311 115.859 98.2466 115.859 99.3205C115.859 100.11 116.02 101.152 115.07 101.152Z" fill="#9EBFD8"/>
<path opacity="0.8" d="M128.241 101.152C117.8 101.152 117.442 101.441 117.442 100.367C117.442 99.5729 117.277 98.5311 118.227 98.5311C128.663 98.5311 129.025 98.2466 129.025 99.3205C129.025 100.11 129.186 101.152 128.241 101.152Z" fill="#9EBFD8"/>
<path opacity="0.8" d="M141.407 101.152C130.971 101.152 130.609 101.441 130.609 100.367C130.609 99.5729 130.448 98.5311 131.393 98.5311C141.834 98.5311 142.196 98.2466 142.196 99.3205C142.196 100.11 142.357 101.152 141.407 101.152Z" fill="#9EBFD8"/>
</g>
<path opacity="0.8" d="M115.07 106.649C104.634 106.649 104.271 106.939 104.271 105.865C104.271 105.071 104.111 104.029 105.056 104.029H115.07C115.279 104.029 115.48 104.112 115.628 104.26C115.776 104.408 115.859 104.609 115.859 104.818V105.869C115.858 105.972 115.838 106.074 115.798 106.169C115.758 106.264 115.699 106.35 115.626 106.423C115.553 106.495 115.466 106.553 115.37 106.591C115.275 106.63 115.173 106.65 115.07 106.649Z" fill="#9EBFD8"/>
<path opacity="0.8" d="M128.241 106.649H118.227C118.124 106.65 118.021 106.63 117.926 106.591C117.83 106.552 117.744 106.494 117.671 106.421C117.598 106.348 117.54 106.261 117.501 106.166C117.461 106.07 117.442 105.968 117.442 105.865V104.814C117.442 104.71 117.461 104.608 117.501 104.512C117.54 104.416 117.597 104.329 117.67 104.256C117.743 104.182 117.83 104.124 117.926 104.085C118.021 104.045 118.123 104.024 118.227 104.024C128.663 104.024 129.025 103.74 129.025 104.814V105.865C129.025 106.073 128.943 106.272 128.795 106.42C128.648 106.567 128.449 106.649 128.241 106.649Z" fill="#D6723A"/>
<path opacity="0.8" d="M115.07 112.147C104.634 112.147 104.271 112.436 104.271 111.363C104.271 110.569 104.111 109.527 105.056 109.527C115.497 109.527 115.859 109.242 115.859 110.316C115.859 111.106 116.02 112.147 115.07 112.147Z" fill="#9EBFD8"/>
<path opacity="0.8" d="M128.241 112.147C117.8 112.147 117.442 112.436 117.442 111.363C117.442 110.569 117.277 109.527 118.227 109.527C128.663 109.527 129.025 109.242 129.025 110.316C129.025 111.106 129.186 112.147 128.241 112.147Z" fill="#9EBFD8"/>
<path opacity="0.8" d="M135.432 76.2919H137.373C137.529 76.2919 137.678 76.3538 137.789 76.4639C137.899 76.5741 137.961 76.7235 137.961 76.8793C137.961 78.5956 138.135 79.4079 137.373 79.4079C135.652 79.4079 134.844 79.5777 134.844 78.8205V76.8793C134.844 76.7235 134.906 76.5741 135.017 76.4639C135.127 76.3538 135.276 76.2919 135.432 76.2919Z" fill="#514342"/>
<path opacity="0.8" d="M139.668 76.2918H141.604C141.682 76.2912 141.759 76.306 141.831 76.3352C141.902 76.3645 141.968 76.4076 142.023 76.4622C142.078 76.5168 142.121 76.5818 142.151 76.6534C142.181 76.725 142.196 76.8017 142.196 76.8792C142.196 78.5956 142.366 79.4079 141.604 79.4079C139.888 79.4079 139.08 79.5777 139.08 78.8205V76.8792C139.08 76.7235 139.142 76.574 139.252 76.4639C139.363 76.3537 139.512 76.2918 139.668 76.2918Z" fill="#514342"/>
<path opacity="0.8" d="M95.763 103.781C97.484 103.781 98.2917 103.607 98.2917 104.369C98.2917 106.09 98.4661 106.897 97.7043 106.897C95.9833 106.897 95.1756 107.072 95.1756 106.31C95.1756 104.589 94.9966 103.781 95.763 103.781Z" fill="#514342"/>
<path opacity="0.8" d="M99.9988 103.781C101.715 103.781 102.527 103.607 102.527 104.369C102.527 106.09 102.697 106.897 101.935 106.897C100.219 106.897 99.4114 107.072 99.4114 106.31V104.369C99.4114 104.213 99.4733 104.063 99.5834 103.953C99.6936 103.843 99.843 103.781 99.9988 103.781Z" fill="#514342"/>
<path opacity="0.8" d="M95.763 92.7854C97.484 92.7854 98.2917 92.6111 98.2917 93.3729C98.2917 95.0892 98.4661 95.9015 97.7043 95.9015C95.9833 95.9015 95.1756 96.0713 95.1756 95.3141C95.1756 93.5932 94.9966 92.7854 95.763 92.7854Z" fill="#514342"/>
<path opacity="0.8" d="M99.9987 92.7854C101.715 92.7854 102.527 92.6111 102.527 93.3729C102.527 95.0892 102.697 95.9015 101.935 95.9015C100.219 95.9015 99.4112 96.0713 99.4112 95.3141C99.4112 93.5932 99.2369 92.7854 99.9987 92.7854Z" fill="#514342"/>
<path opacity="0.8" d="M95.763 81.7897C97.484 81.7897 98.2917 81.6153 98.2917 82.3771C98.2917 84.0935 98.4661 84.9058 97.7043 84.9058C95.9833 84.9058 95.1756 85.0756 95.1756 84.3184C95.1756 82.6066 94.9966 81.7897 95.763 81.7897Z" fill="#514342"/>
<path opacity="0.8" d="M99.9987 81.7897C101.715 81.7897 102.527 81.6153 102.527 82.3771C102.527 84.0935 102.697 84.9058 101.935 84.9058C100.219 84.9058 99.4112 85.0756 99.4112 84.3184C99.4112 82.6066 99.2369 81.7897 99.9987 81.7897Z" fill="#514342"/>
<path opacity="0.8" d="M95.7629 73.9055H97.7041C98.0285 73.9055 98.2915 73.6425 98.2915 73.318V71.3768C98.2915 71.0524 98.0285 70.7894 97.7041 70.7894H95.7629C95.4384 70.7894 95.1754 71.0524 95.1754 71.3768V73.318C95.1754 73.6425 95.4384 73.9055 95.7629 73.9055Z" fill="#514342"/>
<path opacity="0.8" d="M99.994 73.9055H101.935C102.26 73.9055 102.523 73.6425 102.523 73.318V71.3768C102.523 71.0524 102.26 70.7894 101.935 70.7894H99.994C99.6696 70.7894 99.4066 71.0524 99.4066 71.3768V73.318C99.4066 73.6425 99.6696 73.9055 99.994 73.9055Z" fill="#514342"/>
<path opacity="0.8" d="M141.398 106.581C144.941 106.581 145.836 106.356 145.836 107.342C145.836 108.655 146.033 109.697 145.078 109.697C141.531 109.697 140.636 109.922 140.636 108.939C140.636 107.622 140.43 106.581 141.398 106.581Z" fill="#514342"/>
<path d="M76.3873 118.82C50.4354 117.154 41.8306 121.789 42.4823 116.672C42.7505 114.638 42.8915 112.589 42.9045 110.536C42.9068 109.716 43.0765 108.906 43.4031 108.153C43.7297 107.401 44.2064 106.724 44.804 106.162C45.4016 105.601 46.1075 105.167 46.8786 104.888C47.6496 104.609 48.4695 104.49 49.2881 104.538C74.5654 106.025 83.418 101.555 82.2936 106.833C81.7174 109.24 81.3944 111.701 81.3299 114.176C81.3326 114.812 81.2042 115.442 80.9529 116.026C80.7015 116.611 80.3325 117.137 79.8688 117.573C79.4052 118.009 78.8568 118.344 78.2578 118.559C77.6589 118.773 77.0222 118.862 76.3873 118.82Z" fill="white"/>
<path d="M46.25 119.421C44.4144 119.421 43.2762 119.21 42.6705 118.568C42.2574 118.109 42.1152 117.512 42.2115 116.636C42.4775 114.613 42.617 112.576 42.6292 110.536C42.6272 109.683 42.8014 108.838 43.141 108.054C43.4805 107.271 43.9781 106.566 44.6025 105.984C45.2277 105.396 45.9659 104.942 46.7722 104.648C47.5785 104.355 48.436 104.229 49.2927 104.277C57.2897 104.735 65.3076 104.689 73.2988 104.139C78.5856 103.827 81.2381 103.68 82.2294 104.823C82.6378 105.282 82.7342 105.952 82.5369 106.888C82.078 109.04 81.5548 111.812 81.5731 114.189C81.5821 114.854 81.452 115.514 81.1912 116.125C80.9304 116.737 80.5447 117.288 80.0587 117.742C79.5662 118.205 78.9839 118.563 78.3477 118.793C77.7114 119.022 77.0349 119.119 76.3598 119.077C68.0087 118.539 59.6305 118.576 51.2844 119.187C49.2101 119.32 47.5488 119.421 46.25 119.421ZM48.9256 104.786C47.4003 104.79 45.9384 105.396 44.8586 106.474C43.7788 107.551 43.1688 109.011 43.1615 110.536C43.1493 112.599 43.0098 114.659 42.7439 116.704C42.6772 116.962 42.6702 117.232 42.7234 117.493C42.7767 117.753 42.8889 117.999 43.0514 118.21C43.9096 119.127 46.6814 118.953 51.266 118.669C59.6336 118.057 68.0332 118.02 76.4057 118.558C77.01 118.597 77.6158 118.511 78.1852 118.305C78.7546 118.099 79.2752 117.777 79.7145 117.361C80.1521 116.958 80.5007 116.468 80.7378 115.923C80.9749 115.378 81.0953 114.789 81.0913 114.194C81.0683 111.766 81.6007 108.958 82.0642 106.782C82.2248 106.016 82.1651 105.502 81.8714 105.163C81.05 104.203 78.1588 104.373 73.3631 104.658C65.3521 105.213 57.314 105.259 49.2973 104.795L48.9256 104.786Z" fill="#EEE4D9"/>
<path d="M65.6624 113.354C65.2891 113.502 64.889 113.571 64.4876 113.556C64.1785 113.582 63.8674 113.541 63.5757 113.435C63.284 113.329 63.0187 113.162 62.7981 112.944C62.5774 112.726 62.4066 112.462 62.2974 112.172C62.1882 111.882 62.1432 111.571 62.1655 111.262C62.1501 110.94 62.2026 110.619 62.3195 110.319C62.4365 110.019 62.6152 109.747 62.8442 109.52C63.0732 109.294 63.3472 109.118 63.6486 109.005C63.9499 108.891 64.2717 108.842 64.5932 108.861C64.9736 108.848 65.3525 108.917 65.7037 109.063L65.5202 109.724C65.2389 109.604 64.9356 109.545 64.6299 109.55C64.4099 109.537 64.1897 109.571 63.9846 109.652C63.7795 109.733 63.5944 109.857 63.4423 110.016C63.2903 110.176 63.1748 110.367 63.1041 110.575C63.0334 110.784 63.0091 111.006 63.0328 111.225C63.0117 111.441 63.0379 111.659 63.1095 111.864C63.1811 112.069 63.2964 112.256 63.4475 112.412C63.5986 112.568 63.7818 112.689 63.9844 112.767C64.1869 112.845 64.4041 112.878 64.6207 112.863C64.935 112.87 65.2474 112.812 65.5385 112.693L65.6624 113.354Z" fill="#444244"/>
<path d="M66.516 113.497L66.6949 112.244H66.1396V111.716H66.773L66.8969 110.858H66.314V110.339H66.9703L67.1447 109.109H67.6541L67.4843 110.339H68.1405L68.3149 109.109H68.8381L68.6683 110.339H69.219V110.858H68.5903L68.4756 111.716H69.04V112.234H68.3792L68.2094 113.497H67.6908L67.8652 112.234H67.2181L67.0391 113.497H66.516ZM67.9432 111.716L68.0579 110.858H67.4017L67.2869 111.716H67.9432Z" fill="#444244"/>
<path opacity="0.8" d="M59.5265 110.711C49.0907 110.711 48.7281 111 48.7281 109.926C48.7281 109.132 48.5675 108.09 49.5129 108.09C59.9533 108.09 60.3113 107.806 60.3113 108.88C60.3113 109.683 60.4719 110.711 59.5265 110.711Z" fill="#D6723A"/>
<path opacity="0.8" d="M59.5265 114.91C49.0907 114.91 48.7281 115.199 48.7281 114.125C48.7281 113.331 48.5675 112.29 49.5129 112.29C59.9533 112.29 60.3113 112.005 60.3113 113.074C60.3113 113.864 60.4719 114.91 59.5265 114.91Z" fill="#9EBFD8"/>
<path opacity="0.8" d="M72.6838 109.605C76.2312 109.605 77.1215 109.38 77.1215 110.362C77.1215 111.675 77.3189 112.716 76.3643 112.716C72.8168 112.716 71.922 112.941 71.922 111.959C71.922 110.647 71.7292 109.605 72.6838 109.605Z" fill="#514342"/>
<path opacity="0.8" d="M45.8324 108.086C47.7048 108.086 48.4069 107.93 48.4069 108.627C48.4069 109.963 48.5584 110.711 47.8654 110.711C45.993 110.711 45.2909 110.871 45.2909 110.174C45.2909 108.834 45.1394 108.086 45.8324 108.086Z" fill="#514342"/>
<path opacity="0.8" d="M45.8324 112.285C47.7048 112.285 48.4069 112.129 48.4069 112.826C48.4069 114.162 48.5584 114.91 47.8654 114.91C45.993 114.91 45.2909 115.071 45.2909 114.368C45.2909 113.033 45.1394 112.285 45.8324 112.285Z" fill="#514342"/>
<g style="mix-blend-mode:multiply">
<path d="M116.332 160.068C116.332 166.644 66.1487 166.644 66.1487 160.068C66.1487 153.491 116.332 153.491 116.332 160.068Z" fill="#E0DFEA"/>
</g>
<path d="M87.6537 50.6336C87.6904 53.5615 88.6634 55.7368 83.2756 58.27C86.4881 62.6803 89.6409 64.3094 89.6409 64.3094C89.6409 64.3094 96.3916 61.2668 98.7137 59.2613C95.8592 57.1824 93.7849 56.9346 93.8354 54.1489C93.8354 53.4789 93.8354 50.7483 93.7987 50.6933L87.6537 50.6336Z" fill="#FFA887"/>
<path d="M92.8945 51.6616C94.4273 51.244 97.0753 46.9577 96.4328 41.3129C95.9739 37.4029 87.828 34.3282 86.6532 41.2762C86.1025 45.2505 82.9038 45.3239 85.7675 46.5217C85.7675 46.5217 85.0974 50.0829 87.9886 51.1568C87.0524 50.7759 90.4071 52.3408 92.8945 51.6616Z" fill="#FFA887"/>
<path d="M78.9666 154.942C79.9486 155.699 81.4631 155.529 82.849 154.73L84.2625 147.92L79.0629 148.044L78.9666 154.942Z" fill="#FCA685"/>
<path d="M104.331 154.942C103.344 155.699 101.834 155.529 100.444 154.73L99.0349 147.92L104.23 148.044L104.331 154.942Z" fill="#FCA685"/>
<path d="M100.66 86.7828C105.391 105.493 106.167 152.257 105.18 152.491C104.565 152.638 99.5446 153.528 99.3243 152.528C94.3083 129.527 90.6782 107.287 90.6782 107.287C88.6131 130.233 84.9601 152.564 83.5925 152.748C82.358 152.918 78.0258 152.454 77.9615 151.504C77.6036 146.429 76.8647 97.2875 80.0129 86.5579L100.66 86.7828Z" fill="#3B314A"/>
<path d="M100.962 153.124C100.451 153.165 99.9375 153.08 99.4663 152.876C99.4063 152.842 99.3537 152.796 99.3119 152.741C99.2701 152.685 99.2399 152.622 99.2231 152.555C94.8542 132.546 91.5087 112.895 90.7423 108.306C89.7831 118.678 88.4477 129.651 87.025 138.567C86.0016 145.024 84.5836 152.748 83.6336 152.876C82.5873 153.023 79.0444 152.702 78.1266 151.959C78.0564 151.909 77.9971 151.845 77.9521 151.772C77.9072 151.699 77.8775 151.617 77.865 151.532C77.4703 145.915 76.8095 97.1498 79.9255 86.5396L79.9531 86.4432H80.054L100.797 86.6726L100.82 86.769C103.496 97.3242 104.707 115.874 105.198 125.988C105.868 139.985 105.841 151.757 105.368 152.537C105.356 152.561 105.339 152.583 105.317 152.599C105.296 152.616 105.271 152.628 105.244 152.633C103.834 152.922 102.401 153.087 100.962 153.124ZM90.6413 106.25L90.8065 107.264C90.8432 107.489 94.4779 129.751 99.4526 152.5C99.4623 152.534 99.4788 152.565 99.5008 152.591C99.5229 152.618 99.5502 152.64 99.5811 152.656C100.439 153.193 104.299 152.56 105.116 152.372C105.506 151.647 105.575 140.44 104.905 126.098C104.423 116.002 103.216 97.4986 100.559 86.9113L80.1091 86.6864C77.0343 97.4664 77.6952 145.887 78.0898 151.495C78.0988 151.544 78.1177 151.591 78.1453 151.633C78.1729 151.675 78.2087 151.711 78.2505 151.738C79.0811 152.408 82.4633 152.771 83.5739 152.619C83.9319 152.574 84.9966 149.549 86.7451 138.526C88.2044 129.325 89.5904 117.934 90.5495 107.274L90.6413 106.25Z" fill="#617690"/>
<path d="M95.9832 90.0411C96.0796 90.0411 96.0429 86.2871 96.0429 86.3697C96.0429 86.2688 95.3407 86.3101 95.4325 86.3101C95.3361 86.3101 95.3728 90.0686 95.3728 89.9814C95.3728 90.087 96.075 90.0411 95.9832 90.0411Z" fill="#3B314A"/>
<path d="M83.9136 89.7841C84.0146 89.7841 83.9733 86.0301 83.9733 86.1127C83.9733 86.0072 83.2711 86.0531 83.3629 86.0531C83.2665 86.0531 83.3033 89.807 83.3033 89.7244C83.3033 89.83 84.0054 89.7841 83.9136 89.7841Z" fill="#3B314A"/>
<path d="M94.1614 55.232C93.0944 55.8157 91.9064 56.1435 90.6911 56.1897C89.4758 56.2359 88.2664 55.9992 87.1582 55.4982C82.9316 56.7877 78.7508 57.4853 78.838 61.6569C79.0262 70.3259 78.425 86.1173 80.0129 86.5579C87.2317 88.5588 100.352 87.9347 101.458 86.5579C102.959 84.6901 102.376 72.5792 101.821 64.7959C101.676 62.6095 100.864 60.5202 99.4944 58.8099C98.1247 57.0997 96.2633 55.8508 94.1614 55.232Z" fill="#FFFFF8"/>
<path d="M91.8759 87.9668C87.8007 87.9668 83.2619 87.5905 79.9807 86.6818C78.8012 86.356 78.7232 79.6925 78.7462 69.5687C78.7462 66.6729 78.7462 63.9423 78.7095 61.6615C78.6269 57.8433 82.0871 56.8382 85.7539 55.7781L87.1306 55.3743H87.1811L87.227 55.3972C88.3168 55.8879 89.5053 56.1196 90.6996 56.0742C91.8939 56.0289 93.0614 55.7076 94.1108 55.1356L94.1613 55.1081H94.2118C96.3336 55.7437 98.2117 57.0101 99.5963 58.739C100.981 60.4679 101.806 62.5773 101.963 64.7867C102.596 73.7448 103.041 84.8094 101.573 86.6359C100.921 87.4344 96.7267 87.9668 91.8759 87.9668ZM87.149 55.6359C86.6901 55.7735 86.2633 55.902 85.8273 56.0259C82.1055 57.1044 78.893 58.036 78.971 61.6569C79.0169 63.9515 79.0123 66.6729 79.0078 69.5733C79.0078 76.9481 78.971 86.1311 80.0495 86.4294C87.3922 88.4716 100.352 87.7236 101.357 86.4753C102.463 85.0985 102.582 77.4024 101.692 64.8051C101.558 62.6525 100.765 60.5933 99.4213 58.9064C98.0776 57.2195 96.2477 55.9864 94.1797 55.3743C93.1047 55.9492 91.9128 56.2716 90.6945 56.3169C89.4763 56.3623 88.2637 56.1293 87.149 55.6359Z" fill="#EFE5DA"/>
<path d="M97.1902 53.6396C96.0692 53.5909 94.9553 53.4372 93.863 53.1806C93.8297 53.1719 93.8009 53.1511 93.7822 53.1222C93.7635 53.0934 93.7563 53.0585 93.762 53.0246C93.7697 52.9907 93.7903 52.9612 93.8195 52.9424C93.8486 52.9235 93.884 52.9168 93.918 52.9236C96.6303 53.4881 97.9244 53.5294 98.3925 53.0797C98.7642 52.7171 98.6312 51.9691 98.4476 50.9411C98.1311 49.5023 98.0643 48.0198 98.2503 46.5584C99.1268 40.7806 96.3733 38.5503 94.6431 37.715C92.1512 36.5264 89.1361 36.9257 88.076 38.0776C88.064 38.0898 88.0498 38.0995 88.034 38.1061C88.0182 38.1127 88.0013 38.1161 87.9842 38.1161C87.9671 38.1161 87.9502 38.1127 87.9344 38.1061C87.9187 38.0995 87.9044 38.0898 87.8924 38.0776C87.8689 38.0528 87.8557 38.02 87.8557 37.9858C87.8557 37.9516 87.8689 37.9188 87.8924 37.894C89.003 36.6779 92.1742 36.2373 94.7762 37.4718C96.5706 38.3254 99.4389 40.6475 98.5302 46.5814C98.3467 48.0153 98.4134 49.4703 98.7275 50.8815C98.9249 51.9874 99.0671 52.7906 98.5944 53.2495C98.1959 53.5592 97.6913 53.6993 97.1902 53.6396Z" fill="#30323E"/>
<path d="M90.7881 51.6616C90.7656 51.6679 90.7418 51.6679 90.7193 51.6616C88.8423 50.5464 88.6908 48.1876 88.5945 46.6135C88.5891 46.204 88.5399 45.7963 88.4476 45.3973C88.1493 44.4795 87.3187 43.9104 86.5201 43.3414C85.9571 43.0078 85.4695 42.5609 85.0883 42.0289C84.8878 41.5869 84.7961 41.1034 84.8208 40.6187C84.8456 40.1341 84.9861 39.6624 85.2306 39.2432C85.6023 38.6191 86.3779 37.8665 87.9841 37.8665C88.0182 37.8665 88.0509 37.88 88.0749 37.9041C88.099 37.9282 88.1126 37.9609 88.1126 37.995C88.1126 38.029 88.099 38.0617 88.0749 38.0858C88.0509 38.1099 88.0182 38.1234 87.9841 38.1234C86.5064 38.1234 85.795 38.8027 85.46 39.3717C85.2372 39.7509 85.1084 40.1779 85.0844 40.617C85.0605 41.0561 85.1421 41.4946 85.3224 41.8958C85.6796 42.399 86.1375 42.8225 86.667 43.1394C87.4655 43.7039 88.3696 44.3418 88.6954 45.3239C88.7954 45.7451 88.8493 46.176 88.856 46.6089C88.9478 48.1141 89.0901 50.395 90.8523 51.4413C90.8672 51.4494 90.8802 51.4604 90.8906 51.4737C90.901 51.487 90.9086 51.5023 90.9129 51.5186C90.9172 51.5349 90.9181 51.552 90.9156 51.5687C90.9131 51.5854 90.9072 51.6014 90.8982 51.6157C90.885 51.6317 90.868 51.6442 90.8488 51.6522C90.8296 51.6602 90.8088 51.6634 90.7881 51.6616Z" fill="#30323E"/>
<path d="M88.7552 37.3387C92.2843 36.0904 96.6946 38.2152 97.4747 40.9733C98.0897 43.0981 98.8515 51.3908 96.1347 49.6928C93.2114 47.8571 91.5455 42.9054 89.6226 40.2161C89.3059 39.7388 86.3643 38.1877 88.7552 37.3387Z" fill="#30323E"/>
<path d="M92.0136 39.4681C93.4178 40.7898 93.1654 41.5011 93.5463 42.7723C94.4412 45.7736 98.1355 46.9026 98.3375 51.7304C98.3971 53.1577 97.6996 53.4789 96.3779 53.1806C91.036 51.9828 89.0581 52.3408 89.1545 48.495C89.2876 43.2725 87.7777 44.1169 86.1531 42.4923C83.5235 39.849 87.6263 35.3378 92.0136 39.4681Z" fill="#30323E"/>
<path d="M87.9796 42.3593C87.9512 42.3593 87.9236 42.3496 87.9015 42.3317C86.4835 41.2303 86.4146 40.3033 86.6074 39.7205C86.7028 39.4292 86.8774 39.1701 87.1116 38.9724C87.3458 38.7746 87.6305 38.6459 87.9337 38.6007C87.9642 38.6064 87.9917 38.6227 88.0115 38.6465C88.0313 38.6704 88.0421 38.7005 88.0421 38.7315C88.0421 38.7625 88.0313 38.7926 88.0115 38.8165C87.9917 38.8403 87.9642 38.8566 87.9337 38.8623C87.687 38.9045 87.4562 39.0119 87.265 39.1732C87.0737 39.3346 86.9291 39.5441 86.846 39.7801C86.6808 40.2849 86.7542 41.1018 88.053 42.1069C88.0789 42.1291 88.0956 42.1603 88.0999 42.1942C88.1041 42.2281 88.0956 42.2624 88.0759 42.2904C88.066 42.3084 88.0522 42.3238 88.0355 42.3357C88.0188 42.3476 87.9997 42.3557 87.9796 42.3593Z" fill="#353B4A"/>
<path d="M95.5012 39.413C95.4677 39.4134 95.4352 39.4021 95.4094 39.3809C93.0413 37.146 90.8202 37.5452 89.1818 38.1281C89.1659 38.1338 89.1489 38.1363 89.132 38.1355C89.115 38.1347 89.0984 38.1305 89.0831 38.1233C89.0677 38.116 89.054 38.1058 89.0426 38.0933C89.0312 38.0807 89.0223 38.066 89.0166 38.05C89.0109 38.0341 89.0084 38.0171 89.0092 38.0002C89.01 37.9832 89.0142 37.9666 89.0214 37.9513C89.0286 37.9359 89.0388 37.9222 89.0514 37.9108C89.064 37.8994 89.0787 37.8905 89.0946 37.8848C90.6871 37.3158 93.0918 36.8339 95.5883 39.1882C95.6133 39.2131 95.6273 39.247 95.6273 39.2822C95.6273 39.3175 95.6133 39.3514 95.5883 39.3763C95.5645 39.3985 95.5336 39.4115 95.5012 39.413Z" fill="#353B4A"/>
<path d="M89.5859 41.2074C89.5506 41.2074 89.5167 41.1934 89.4917 41.1684C89.4668 41.1434 89.4528 41.1096 89.4528 41.0743C89.4648 40.5785 89.3762 40.0854 89.1925 39.6248C89.0087 39.1642 88.7335 38.7455 88.3835 38.3942C88.3591 38.3699 88.3455 38.3368 88.3455 38.3024C88.3455 38.268 88.3591 38.235 88.3835 38.2106C88.4078 38.1863 88.4408 38.1726 88.4753 38.1726C88.5097 38.1726 88.5427 38.1863 88.567 38.2106C88.9432 38.5866 89.2389 39.0352 89.4361 39.5291C89.6334 40.023 89.728 40.5518 89.7143 41.0835C89.7132 41.1167 89.6991 41.1483 89.6751 41.1714C89.6512 41.1945 89.6192 41.2074 89.5859 41.2074Z" fill="#353B4A"/>
<path d="M92.9498 39.8215C92.9228 39.8212 92.8968 39.8114 92.8763 39.7939C91.6143 38.899 90.8296 38.7843 89.6639 39.335C89.6485 39.3422 89.6319 39.3464 89.6149 39.3472C89.598 39.348 89.581 39.3454 89.565 39.3397C89.549 39.3339 89.5343 39.3251 89.5218 39.3136C89.5092 39.3022 89.499 39.2884 89.4918 39.2731C89.4846 39.2577 89.4804 39.241 89.4796 39.2241C89.4788 39.2071 89.4814 39.1902 89.4871 39.1742C89.4929 39.1582 89.5017 39.1435 89.5132 39.1309C89.5246 39.1184 89.5384 39.1082 89.5538 39.101C90.8296 38.5135 91.7153 38.642 93.0507 39.5874C93.0726 39.6042 93.0887 39.6273 93.0968 39.6536C93.105 39.68 93.1048 39.7082 93.0962 39.7344C93.0876 39.7605 93.0712 39.7834 93.0491 39.7999C93.0269 39.8163 93.0003 39.8254 92.9727 39.8261L92.9498 39.8215Z" fill="#353B4A"/>
<path d="M93.1195 48.4216H93.0782C93.0457 48.4101 93.0189 48.3865 93.0035 48.3556C92.9881 48.3248 92.9853 48.2893 92.9956 48.2564C93.8079 45.8975 93.817 44.0022 93.0185 42.6117C92.7452 42.1449 92.3817 41.7373 91.9491 41.4127C91.5165 41.0881 91.0235 40.8529 90.499 40.7209C90.482 40.7181 90.4658 40.712 90.4512 40.7028C90.4366 40.6937 90.424 40.6817 90.4142 40.6675C90.4043 40.6534 90.3974 40.6374 90.3939 40.6206C90.3903 40.6038 90.3902 40.5864 90.3935 40.5695C90.4012 40.5356 90.4218 40.5061 90.451 40.4872C90.4801 40.4684 90.5155 40.4616 90.5495 40.4685C91.1106 40.6068 91.6382 40.8563 92.1009 41.2024C92.5637 41.5485 92.9522 41.984 93.2434 42.4832C94.0832 43.9379 94.0786 45.9113 93.2434 48.339C93.2339 48.3639 93.2168 48.3853 93.1946 48.4001C93.1724 48.4149 93.1462 48.4224 93.1195 48.4216Z" fill="#353B4A"/>
<path d="M96.8321 48.2701C96.8129 48.2709 96.7938 48.2671 96.7762 48.2591C96.7587 48.2512 96.7433 48.2392 96.7312 48.2243C95.1708 46.2555 95.6757 44.5529 96.0795 43.1761C96.3503 42.2583 96.5843 41.4598 96.13 40.8127C96.117 40.7988 96.1071 40.7822 96.101 40.7642C96.0949 40.7461 96.0928 40.727 96.0947 40.708C96.0967 40.6891 96.1027 40.6708 96.1123 40.6543C96.122 40.6379 96.135 40.6237 96.1506 40.6128C96.1662 40.6018 96.184 40.5944 96.2027 40.5909C96.2215 40.5874 96.2407 40.588 96.2592 40.5925C96.2777 40.5971 96.295 40.6057 96.3099 40.6175C96.3248 40.6294 96.337 40.6443 96.3457 40.6612C96.8688 41.4093 96.621 42.2629 96.3457 43.2496C95.9372 44.6263 95.4783 46.1958 96.9514 48.059C96.9635 48.0706 96.9731 48.0845 96.9797 48.0999C96.9863 48.1153 96.9897 48.1318 96.9897 48.1485C96.9897 48.1653 96.9863 48.1818 96.9797 48.1972C96.9731 48.2126 96.9635 48.2265 96.9514 48.238C96.9364 48.2538 96.9173 48.2651 96.8963 48.2707C96.8752 48.2764 96.8531 48.2762 96.8321 48.2701Z" fill="#353B4A"/>
<path d="M94.4689 51.3403H94.4322L92.4313 50.7575C90.3569 50.1563 90.4946 49.2431 90.6506 48.183C90.8067 47.1228 90.9948 45.8884 89.3611 44.3418C89.3489 44.3298 89.3392 44.3155 89.3325 44.2998C89.3259 44.284 89.3225 44.2671 89.3225 44.25C89.3225 44.2329 89.3259 44.216 89.3325 44.2002C89.3392 44.1845 89.3489 44.1702 89.3611 44.1582C89.3727 44.1454 89.3869 44.1352 89.4027 44.1282C89.4185 44.1212 89.4356 44.1176 89.4529 44.1176C89.4702 44.1176 89.4872 44.1212 89.5031 44.1282C89.5189 44.1352 89.533 44.1454 89.5446 44.1582C91.2702 45.8149 91.0728 47.1504 90.9214 48.2288C90.77 49.3073 90.6552 49.9773 92.5139 50.5234L94.5148 51.1017C94.543 51.1124 94.5667 51.1325 94.582 51.1585C94.5973 51.1845 94.6033 51.215 94.5991 51.2448C94.5948 51.2747 94.5805 51.3023 94.5585 51.323C94.5365 51.3437 94.5081 51.3562 94.478 51.3587L94.4689 51.3403Z" fill="#353B4A"/>
<path d="M96.8047 52.9695C96.5469 52.9663 96.2894 52.948 96.0337 52.9144C96.0168 52.9133 96.0004 52.9088 95.9852 52.9012C95.9701 52.8937 95.9565 52.8832 95.9455 52.8704C95.9344 52.8576 95.9259 52.8428 95.9206 52.8267C95.9153 52.8106 95.9132 52.7936 95.9144 52.7768C95.9161 52.76 95.9212 52.7438 95.9293 52.729C95.9375 52.7143 95.9485 52.7014 95.9619 52.6911C95.9752 52.6808 95.9904 52.6733 96.0067 52.6691C96.0231 52.6649 96.04 52.664 96.0567 52.6666C96.667 52.7401 97.3967 52.7859 97.6216 52.4555C97.7822 52.2215 97.6858 51.7671 97.3462 51.1522C97.331 51.1221 97.3278 51.0874 97.3371 51.055C97.3465 51.0227 97.3678 50.9951 97.3967 50.9778C97.4117 50.9689 97.4283 50.9632 97.4455 50.961C97.4628 50.9587 97.4803 50.96 97.497 50.9647C97.5138 50.9694 97.5294 50.9775 97.5429 50.9884C97.5564 50.9994 97.5676 51.0129 97.5757 51.0283C97.975 51.7534 98.0622 52.2674 97.8373 52.6024C97.707 52.7416 97.5453 52.8476 97.3656 52.9115C97.186 52.9754 96.9936 52.9953 96.8047 52.9695Z" fill="#353B4A"/>
<path d="M95.7261 50.3353C95.6923 50.3354 95.6598 50.3226 95.6351 50.2996C95.6104 50.2766 95.5953 50.2451 95.593 50.2114C95.5929 50.1764 95.6062 50.1427 95.63 50.1172C95.6539 50.0916 95.6866 50.0761 95.7215 50.0737C96.0608 50.0564 96.39 49.9524 96.6776 49.7716C96.9652 49.5908 97.2017 49.3394 97.3645 49.0412C97.3817 49.0122 97.4093 48.9909 97.4417 48.9816C97.4741 48.9722 97.5088 48.9755 97.5388 48.9907C97.554 48.9983 97.5675 49.0091 97.5784 49.0222C97.5893 49.0353 97.5974 49.0505 97.6021 49.0669C97.6068 49.0832 97.6081 49.1004 97.6059 49.1173C97.6037 49.1342 97.5981 49.1505 97.5893 49.1651C97.4051 49.5025 97.1376 49.7871 96.8122 49.992C96.4869 50.1968 96.1146 50.315 95.7307 50.3353H95.7261Z" fill="#353B4A"/>
<path d="M85.428 98.9074C85.54 99.2819 85.7474 99.6208 86.0297 99.8911C86.3121 100.161 86.6598 100.354 87.0388 100.449C99.5857 103.625 112.036 101.881 108.305 96.8331C103.808 90.7616 105.634 79.7108 104.606 73.0748C102.188 57.4715 94.2163 54.8052 94.2163 54.8052C91.1874 59.5183 85.8456 55.9295 85.8456 55.9295C83.8309 56.5491 78.7002 58.2654 78.7002 58.2654C76.2266 67.6182 83.6473 93.0608 85.428 98.9074Z" fill="#617690"/>
<path d="M99.1865 102.157C95.0779 102.121 90.9885 101.591 87.0067 100.578C86.6075 100.474 86.2416 100.27 85.9436 99.9847C85.6456 99.6996 85.4254 99.3429 85.3041 98.9487C83.7392 93.8088 76.0752 67.6917 78.5626 58.2195V58.1507H78.6268C78.6773 58.1507 83.7851 56.4252 85.7768 55.8148H85.8365L85.8869 55.8469C85.9099 55.8469 88.4661 57.5541 90.9764 57.0355C91.6227 56.8866 92.2314 56.606 92.7644 56.2112C93.2974 55.8164 93.7433 55.3158 94.0741 54.7409L94.1292 54.6583L94.2255 54.6904C94.3035 54.718 102.303 57.5725 104.703 73.0473C104.995 75.4606 105.131 77.8903 105.111 80.3212C105.207 86.0852 105.313 92.6156 108.379 96.7459C109.182 97.8244 109.296 98.8019 108.732 99.6463C107.644 101.298 103.932 102.157 99.1865 102.157ZM85.5519 98.8707C85.6591 99.2231 85.8552 99.542 86.1212 99.7968C86.3872 100.052 86.7143 100.234 87.071 100.325C96.5936 102.739 106.621 102.349 108.535 99.4994C109.035 98.756 108.916 97.8794 108.186 96.8974C105.074 92.6982 104.973 86.1219 104.868 80.3212C104.89 77.9026 104.755 75.4851 104.464 73.084C102.229 58.6693 95.148 55.3192 94.2531 54.952C93.8992 55.5307 93.4324 56.0321 92.8804 56.4264C92.3285 56.8206 91.7028 57.0996 91.0406 57.2466C88.5946 57.756 86.199 56.3288 85.8089 56.058C83.909 56.6455 79.384 58.1507 78.792 58.3526C76.3735 67.811 83.9916 93.7583 85.5473 98.8707H85.5519Z" fill="#3B314A"/>
<path d="M102.592 102.005C102.573 102.005 102.555 102.001 102.539 101.993C102.522 101.985 102.507 101.973 102.495 101.959C98.0208 96.8836 98.1585 91.3628 98.3191 84.9792C98.5119 77.3474 98.7505 67.8523 90.9764 55.8102C90.9576 55.7816 90.9508 55.7467 90.9577 55.7132C90.9646 55.6796 90.9845 55.6501 91.0131 55.6313C91.0417 55.6124 91.0767 55.6057 91.1102 55.6126C91.1438 55.6194 91.1733 55.6394 91.1921 55.668C99.0259 67.7789 98.7872 77.3198 98.5945 84.9838C98.4339 91.3215 98.2962 96.7964 102.725 101.799C102.737 101.811 102.747 101.825 102.753 101.841C102.76 101.856 102.763 101.873 102.763 101.89C102.763 101.908 102.76 101.924 102.753 101.94C102.747 101.956 102.737 101.97 102.725 101.982C102.708 101.999 102.686 102.01 102.662 102.014C102.638 102.018 102.614 102.015 102.592 102.005Z" fill="#3B314A"/>
<path d="M105.29 101.542C105.269 101.542 105.249 101.537 105.231 101.527C105.212 101.517 105.196 101.504 105.185 101.487C102.183 97.5352 101.66 94.6027 101.311 92.6799C100.949 90.6652 100.784 89.7428 98.388 89.5546C98.3575 89.5468 98.3307 89.5283 98.3125 89.5026C98.2943 89.4769 98.2858 89.4455 98.2886 89.4141C98.2913 89.3827 98.3052 89.3533 98.3276 89.3311C98.35 89.3089 98.3795 89.2954 98.411 89.293C101.004 89.4995 101.206 90.6147 101.568 92.634C101.913 94.5431 102.431 97.4251 105.391 101.353C105.412 101.381 105.421 101.416 105.417 101.45C105.413 101.484 105.395 101.515 105.368 101.537C105.343 101.547 105.316 101.549 105.29 101.542Z" fill="#3B314A"/>
<path d="M93.381 52.6208C93.4475 52.5713 93.5239 52.5366 93.6049 52.5192C93.686 52.5018 93.7698 52.5021 93.8508 52.5199C93.9317 52.5378 94.0079 52.5728 94.0741 52.6227C94.1404 52.6725 94.1951 52.736 94.2346 52.8089C95.0653 54.5574 95.7123 55.8516 93.0001 56.9392C87.5986 59.1007 88.4109 58.316 85.8318 55.9204C86.6165 55.6634 88.1126 55.847 93.381 52.6208Z" fill="#383B4F"/>
<path d="M88.8928 58.3251C88.0529 58.3251 87.594 57.8983 86.846 57.109C86.5431 56.7923 86.1989 56.4298 85.7446 56.0122L85.5793 55.8607L85.7905 55.7919C85.9592 55.7429 86.1309 55.7046 86.3044 55.6772C87.2452 55.4936 89.0029 55.1586 93.3122 52.5106C93.4064 52.4502 93.5122 52.41 93.6228 52.3926C93.7334 52.3752 93.8464 52.381 93.9546 52.4096C94.0414 52.4363 94.1216 52.4807 94.1904 52.5399C94.2591 52.5991 94.3148 52.672 94.3539 52.7538L94.3768 52.8089C94.8679 53.8415 95.2947 54.7318 94.978 55.5624C94.7394 56.1636 94.129 56.6455 93.046 57.0815C90.8891 57.9213 89.7096 58.3251 88.8928 58.3251ZM86.0933 55.9846C86.4697 56.338 86.7679 56.6501 87.0341 56.93C88.4109 58.3802 88.5807 58.5638 92.9496 56.8153C93.9455 56.416 94.5283 55.9663 94.7348 55.4385C95.0102 54.7364 94.6063 53.892 94.1428 52.9145V52.864C94.1209 52.814 94.0881 52.7695 94.0468 52.7338C94.0055 52.698 93.9568 52.672 93.9042 52.6575C93.8314 52.6386 93.7555 52.635 93.6813 52.6469C93.6071 52.6587 93.5361 52.6858 93.4728 52.7263C89.1222 55.4018 87.3324 55.7414 86.3733 55.9387L86.0933 55.9846Z" fill="#424459"/>
<path d="M43.1386 73.3731C41.5691 74.0477 44.3043 75.4107 48.3336 73.4557C47.6452 73.0932 47.1863 73.2676 46.4979 73.3502C45.2084 73.5108 43.6848 73.1437 43.1386 73.3731Z" fill="#EF7957"/>
<path d="M39.233 77.9486C39.1271 77.991 39.0091 77.9923 38.9022 77.9525C38.7953 77.9126 38.7071 77.8343 38.6548 77.7329C38.4115 77.0583 42.0829 75.4383 45.7313 75.4383C43.7488 76.3424 41.0503 76.9068 39.233 77.9486Z" fill="#F39F84"/>
<path d="M50.5775 72.5103L55.5293 73.754L53.5559 78.2055L50.1645 75.5622C49.5082 75.0619 50.1186 75.1629 39.4625 76.7691C38.8154 76.8655 38.6181 76.4112 39.1779 76.145C40.1784 75.6861 41.7754 75.1445 42.8493 75.3006C42.115 75.1583 40.1417 75.5713 40.183 75.0114C40.2243 74.4516 43.4551 74.4791 44.4876 74.2129C45.7221 73.8871 48.7831 71.6751 50.5775 72.5103Z" fill="#FFA887"/>
<path d="M66.5433 76.994L52.8583 72.1754C52.0415 71.8862 50.8024 75.5301 50.5408 76.7279C50.2287 78.1413 67.5208 87.9485 70.8526 87.2234C74.7351 86.3744 79.4941 75.7503 81.55 72.1341C82.9635 69.6375 83.2802 56.8382 78.6864 58.2517C77.406 58.6464 69.6961 72.9647 67.8008 76.503C67.685 76.7221 67.4943 76.8923 67.2634 76.9824C67.0326 77.0726 66.777 77.0767 66.5433 76.994Z" fill="#617690"/>
<path d="M70.4442 87.3885C66.6031 87.3885 53.2347 79.8668 50.8483 77.4759C50.5087 77.1363 50.3894 76.8884 50.3894 76.7003C50.628 75.6218 51.6331 72.57 52.4913 72.1111C52.5485 72.0743 52.6132 72.0507 52.6806 72.0419C52.7481 72.0332 52.8166 72.0396 52.8813 72.0606L66.5618 76.8793C66.7662 76.9491 66.9888 76.9447 67.1902 76.8666C67.3917 76.7885 67.5592 76.6419 67.6632 76.4525C71.2427 69.7706 77.4244 58.5041 78.6268 58.137C79.0531 57.9849 79.5175 57.9771 79.9487 58.1147C80.3798 58.2524 80.7538 58.5278 81.0132 58.8988C83.193 61.611 82.8167 70.1331 81.6419 72.2075C81.2701 72.8637 80.8158 73.7402 80.2651 74.7545C77.8053 79.4905 74.0789 86.6497 70.8389 87.3564C70.7087 87.3797 70.5765 87.3905 70.4442 87.3885ZM52.7758 72.2901C52.7307 72.2921 52.6867 72.3047 52.6473 72.3268C51.913 72.7398 50.9172 75.6539 50.6739 76.7554C50.6739 76.7554 50.6739 76.9068 51.0457 77.2923C53.4458 79.7016 67.8605 87.7465 70.8343 87.0948C73.955 86.411 77.7961 79.0362 80.0861 74.626C80.6185 73.6072 81.0728 72.7306 81.4629 72.0698C82.5872 70.0918 82.9406 61.6385 80.8617 59.0548C80.632 58.7269 80.3015 58.483 79.9203 58.3604C79.5392 58.2378 79.1285 58.2431 78.7507 58.3756C77.9522 58.6234 73.9137 65.42 67.9431 76.5672C67.8081 76.8166 67.5869 77.0082 67.3208 77.1062C67.0547 77.2042 66.762 77.2018 66.4975 77.0995L52.8171 72.2855L52.7758 72.2901Z" fill="#3B314A"/>
<path d="M99.182 159.054C99.0489 161.389 102.28 161.619 104.882 161.128C105.151 161.078 105.406 160.973 105.632 160.819C105.858 160.664 106.049 160.465 106.193 160.232C106.337 159.999 106.431 159.739 106.468 159.468C106.505 159.197 106.486 158.922 106.41 158.659C105.79 156.502 104.671 153.721 103.032 153.542C98.8469 153.088 99.3793 155.625 99.182 159.054Z" fill="#514342"/>
<path d="M102.72 161.458C101.522 161.458 100.375 161.238 99.6959 160.641C99.4714 160.446 99.2972 160.199 99.1878 159.922C99.0784 159.645 99.037 159.345 99.0672 159.049C99.0672 158.613 99.1039 158.191 99.1177 157.787C99.1681 156.075 99.214 154.721 100.077 153.969C100.683 153.441 101.628 153.271 103.046 153.423C104.739 153.606 105.873 156.355 106.525 158.627C106.606 158.904 106.627 159.196 106.587 159.482C106.548 159.768 106.448 160.043 106.295 160.288C106.144 160.534 105.944 160.747 105.707 160.912C105.47 161.077 105.202 161.191 104.918 161.247C104.194 161.385 103.458 161.455 102.72 161.458ZM102.128 153.606C101.452 153.551 100.778 153.743 100.233 154.148C99.4435 154.831 99.4068 156.139 99.3517 157.791C99.3517 158.2 99.3288 158.622 99.3012 159.063C99.2785 159.32 99.3169 159.579 99.4135 159.818C99.51 160.057 99.6618 160.27 99.8565 160.439C100.885 161.357 103.115 161.321 104.859 160.99C105.113 160.943 105.354 160.844 105.567 160.697C105.779 160.551 105.959 160.362 106.093 160.141C106.229 159.924 106.318 159.68 106.353 159.426C106.387 159.172 106.368 158.914 106.295 158.668C105.777 156.864 104.666 153.813 103.018 153.62C102.722 153.599 102.425 153.594 102.128 153.606Z" fill="#463C3A"/>
<path d="M83.8401 159.058C83.9732 161.394 80.7424 161.619 78.1403 161.128C77.8716 161.077 77.6164 160.971 77.3911 160.816C77.1657 160.661 76.9753 160.461 76.8318 160.228C76.6884 159.995 76.5952 159.735 76.5581 159.464C76.5211 159.193 76.541 158.917 76.6167 158.654C77.2362 156.502 78.3606 153.716 79.999 153.542C84.1843 153.092 83.6474 155.63 83.8401 159.058Z" fill="#514342"/>
<path d="M80.311 161.458C79.5762 161.455 78.8433 161.383 78.122 161.243C77.8389 161.186 77.5706 161.071 77.3337 160.906C77.0968 160.741 76.8965 160.529 76.7452 160.283C76.5928 160.038 76.4941 159.763 76.4553 159.477C76.4166 159.191 76.4387 158.899 76.5203 158.622C77.1766 156.35 78.3101 153.606 80.0035 153.423C81.4216 153.271 82.367 153.446 82.9727 153.973C83.8355 154.726 83.8906 156.08 83.9273 157.787C83.9273 158.191 83.9548 158.618 83.9778 159.054C84.0066 159.35 83.9642 159.649 83.854 159.926C83.7439 160.203 83.5692 160.45 83.3445 160.646C82.6469 161.238 81.5088 161.458 80.311 161.458ZM80.8984 153.606C80.6277 153.606 80.3339 153.606 80.0081 153.657C78.3652 153.836 77.2546 156.869 76.7314 158.705C76.6581 158.95 76.6378 159.207 76.6719 159.46C76.7059 159.713 76.7935 159.957 76.9288 160.173C77.0633 160.394 77.2427 160.583 77.4554 160.729C77.6682 160.876 77.9094 160.976 78.1633 161.022C79.9072 161.357 82.1375 161.385 83.1701 160.481C83.3676 160.309 83.5208 160.092 83.6166 159.848C83.7125 159.605 83.7482 159.341 83.7208 159.081C83.6978 158.622 83.6841 158.214 83.6703 157.81C83.6244 156.158 83.5831 154.85 82.7984 154.166C82.2546 153.754 81.5788 153.555 80.8984 153.606Z" fill="#463C3A"/>
<path d="M90.141 88.9764L89.8382 87.4115C89.7739 87.0856 83.037 88.2054 83.1609 88.7882L83.4087 89.9768C83.4729 90.2797 90.2558 89.5592 90.141 88.9764Z" fill="#383B4F"/>
<path d="M83.9456 90.1788C83.3169 90.1788 83.2985 90.0824 83.2802 89.9998L83.0324 88.8112C83.0248 88.7646 83.0302 88.7168 83.048 88.6731C83.0659 88.6294 83.0954 88.5914 83.1333 88.5634C83.785 87.9897 89.2003 87.0398 89.8382 87.2555C89.8701 87.2629 89.8993 87.2793 89.9221 87.303C89.9449 87.3266 89.9604 87.3563 89.9666 87.3885L90.2695 88.9489C90.3154 89.1692 90.0814 89.3711 88.7964 89.6281C87.6684 89.8392 86.5303 89.9924 85.3866 90.087C84.712 90.1558 84.2531 90.1788 83.9456 90.1788ZM83.5234 89.8943C84.2393 90.1237 89.7005 89.3573 90.0125 88.9764L89.7234 87.4849C88.9937 87.2876 83.5739 88.3615 83.2985 88.7699L83.5234 89.8943Z" fill="#424459"/>
</svg>
