<svg width="169" height="165" viewBox="0 0 169 165" fill="none" xmlns="http://www.w3.org/2000/svg">
<path d="M154.616 124.661L33.7454 124.661L33.7454 39.3602C33.7454 38.8043 33.8549 38.2539 34.0676 37.7404C34.2803 37.2268 34.5921 36.7602 34.9851 36.3671C35.3782 35.9741 35.8448 35.6623 36.3584 35.4496C36.8719 35.2369 37.4223 35.1274 37.9782 35.1274L150.365 35.1274C150.921 35.1274 151.472 35.2369 151.985 35.4496C152.499 35.6623 152.965 35.9741 153.358 36.3671C153.751 36.7602 154.063 37.2268 154.276 37.7404C154.489 38.2539 154.598 38.8043 154.598 39.3602V124.661H154.616Z" fill="url(#paint0_linear_234_139)"/>
<path d="M38.0138 108.386L150.128 108.386V39.5122L38.0138 39.5122L38.0138 108.386Z" fill="url(#paint1_linear_234_139)"/>
<path d="M45.5856 96.2197H34.2905V97.4981H45.5856V96.2197Z" fill="#1487E3"/>
<path d="M3.89176 91.4863C3.89176 91.4863 3.38221 98.6379 4.78571 99.5318C5.67965 100.068 9.16605 101.883 9.05877 102.214C8.9515 102.544 7.08315 105.24 7.08315 105.24C7.08315 105.24 0.378546 100.81 0.14165 99.429C-0.0952456 98.0479 0.450062 88.9117 1.39318 88.5005C2.08599 88.1831 2.4525 88.4424 3.3241 89.0905C4.54881 89.9934 3.89176 91.4863 3.89176 91.4863Z" fill="#FF7E55"/>
<path d="M2.89948 145.168C3.31077 145.657 3.79465 146.081 4.33427 146.424C5.03602 146.804 6.14451 146.956 6.56914 147.349C6.86861 147.635 7.66422 148.86 4.74101 148.833C1.81781 148.806 0.400901 149.007 0.0880192 148.538C-0.224862 148.069 0.534993 145.069 0.534993 145.069C1.30989 145.251 2.11218 145.285 2.89948 145.168V145.168Z" fill="#292C47"/>
<path d="M14.4092 145.168C14.8197 145.656 15.302 146.08 15.8395 146.424C16.5457 146.804 19.1381 147.117 19.5583 147.51C19.8578 147.796 20.3584 148.945 16.2417 148.851C13.3141 148.775 11.9016 149.025 11.5888 148.556C11.2759 148.087 12.0357 145.087 12.0357 145.087C12.0357 145.087 12.6928 145.333 14.4092 145.168Z" fill="#292C47"/>
<path d="M3.9366 106.379C3.9366 106.379 1.79112 109.826 1.93415 112.928C2.07719 116.03 1.74196 119.342 1.42014 122.587C1.05809 126.203 0.0792146 133.725 0.0166383 135.656C-0.045938 137.587 0.088154 144.864 0.088154 144.864L3.83379 144.819C3.83379 144.819 5.17471 130.123 5.80942 128.599C6.44412 127.074 9.10361 116.03 9.21088 114.809C9.31816 113.589 3.9366 106.379 3.9366 106.379Z" fill="#292C47"/>
<path d="M15.312 106.858C15.312 106.858 16.1658 115.292 16.3803 117.192C16.5949 119.091 16.4474 127.325 16.5546 128.509C16.6619 129.694 15.835 142.254 15.6339 144.645L11.5128 144.618C11.5128 144.618 11.2267 134.463 11.2267 129.528C11.2267 124.594 9.96177 118.846 8.5091 115.592C7.05644 112.338 3.73989 112.257 2.84595 106.205C2.84595 106.219 14.1007 104.94 15.312 106.858Z" fill="#292C47"/>
<path d="M6.21613 77.4468C6.21613 77.4468 8.7907 75.726 10.6009 77.5675C12.4112 79.409 13.2828 83.7447 12 84.6073C10.7172 85.47 8.4957 85.698 7.45425 84.5269C6.4128 83.3558 5.2909 81.5635 5.01824 80.2583C4.74559 78.9531 5.56355 77.9966 6.21613 77.4468Z" fill="#EEA886"/>
<path d="M11.1239 84.8979C11.1239 84.8979 11.0882 86.7082 11.2893 87.0926C11.4905 87.477 7.53028 87.4904 7.53028 87.4904C7.31934 86.1783 7.00854 84.8843 6.60058 83.6196C5.99269 81.8451 11.1239 84.8979 11.1239 84.8979Z" fill="#EEA886"/>
<path d="M6.70789 83.5838C6.70789 83.5838 7.07888 83.9592 8.1248 83.5346C9.17071 83.11 10.1496 81.3534 10.5653 81.0896C10.981 80.8259 10.9229 80.5577 10.9229 80.5577L11.3072 80.9019L11.7944 80.8215C11.7944 80.8215 11.0525 79.6325 11.5888 78.9486C12.1252 78.2648 9.91716 74.9259 6.7213 76.9685C6.7213 76.9685 4.22272 78.3363 4.67863 79.8337C5.13454 81.331 5.92569 82.9759 6.70789 83.5838Z" fill="#754836"/>
<path d="M11.5218 87.0478C11.5218 87.0478 11.5218 86.3103 11.1776 86.2388C10.8334 86.1673 7.49007 85.8454 7.07886 86.0064V86.8645C7.07886 86.8645 7.87 87.3517 11.5218 87.0478Z" fill="#E2D2CA"/>
<path d="M5.47425 77.8893C5.47425 77.8893 1.79119 78.8772 6.55145 83.4452L5.47425 77.8893Z" fill="#754836"/>
<path d="M38.3716 97.4668L34.617 97.431C34.9433 97.2433 35.4662 96.9036 35.35 96.7516C35.1847 96.5282 34.1209 97.0109 33.6918 97.0556C33.1651 97.0485 32.6396 97.1071 32.1274 97.2299L30.9429 97.735L32.029 98.7407C32.029 98.7407 33.9912 99.0223 34.5678 99.0625C35.502 99.1295 38.3582 98.0166 38.4073 97.8467C38.4923 97.5428 38.3716 97.4668 38.3716 97.4668Z" fill="#EEA886"/>
<path d="M16.4205 88.0535C14.0336 87.6378 11.5038 87.0344 11.5038 87.0344L7.06085 86.8511C7.06085 86.8511 2.98445 87.7451 1.37535 88.4781C1.22338 88.5452 1.22338 92.1165 0.803223 93.0507L2.14414 95.8621C2.14414 95.8621 2.91741 101.427 3.07385 103.908C3.14983 105.043 1.48709 114.563 1.48709 114.563C3.06645 114.977 4.67616 115.264 6.301 115.422C9.33148 115.752 16.9121 115.301 16.9613 114.939C17.0105 114.577 15.4908 101.601 15.4237 100.931C15.3209 99.8983 15.7232 95.1201 15.7232 95.1201C16.2953 95.8889 19.5985 98.7675 21.212 99.6837C22.3608 100.332 25.1722 99.934 26.0036 99.8536C27.7915 99.6659 32.7529 99.3128 32.8512 99.1384C32.9496 98.9641 32.5652 97.2254 32.3596 97.1539C32.1539 97.0824 25.7756 96.7784 24.171 96.8589C23.5229 96.8946 21.3953 94.5212 21.3953 94.5212C21.3953 94.5212 17.7391 88.6614 16.4205 88.0535Z" fill="#FF7E55"/>
<path d="M154.611 111.734H94.1984H33.7854L20.564 161.156H94.5962H167.837L154.611 111.734Z" fill="url(#paint2_linear_234_139)"/>
<path d="M38.3581 120.405H45.7824C45.8488 120.4 45.9157 120.409 45.9782 120.432C46.0406 120.455 46.097 120.492 46.1433 120.54C46.1896 120.588 46.2246 120.646 46.2456 120.709C46.2667 120.773 46.2734 120.84 46.2651 120.906L45.55 124.133C45.519 124.237 45.4542 124.327 45.3659 124.39C45.2775 124.452 45.1708 124.483 45.0628 124.477H37.5134C37.4453 124.484 37.3765 124.476 37.3124 124.452C37.2482 124.428 37.1904 124.39 37.1433 124.34C37.0962 124.291 37.0612 124.231 37.0409 124.165C37.0206 124.1 37.0155 124.031 37.0262 123.963L37.8754 120.736C37.9079 120.635 37.9729 120.548 38.0603 120.488C38.1477 120.428 38.2524 120.399 38.3581 120.405Z" fill="white"/>
<path d="M49.1838 120.405H54.7978L54.0513 124.477H48.3301L49.1838 120.405Z" fill="white"/>
<path d="M57.6047 120.405H63.2143L62.6287 124.477L56.9075 124.482L57.6047 120.405Z" fill="white"/>
<path d="M66.0212 120.405H71.6307L71.2061 124.477H65.4849L66.0212 120.405Z" fill="white"/>
<path d="M74.4379 120.405H80.0519L79.7837 124.477H74.0669L74.4379 120.405Z" fill="white"/>
<path d="M82.8586 120.405H88.4681L88.3653 124.477L82.644 124.482L82.8586 120.405Z" fill="white"/>
<path d="M150.222 120.405H141.806L142.709 124.477H151.29L150.222 120.405Z" fill="white"/>
<path d="M138.999 120.405H133.385L134.131 124.477H139.852L138.999 120.405Z" fill="white"/>
<path d="M130.578 120.405H124.968L125.554 124.477L131.275 124.482L130.578 120.405Z" fill="white"/>
<path d="M122.161 120.405H116.547L116.976 124.477H122.693L122.161 120.405Z" fill="white"/>
<path d="M113.745 120.405H108.131L108.399 124.477H114.116L113.745 120.405Z" fill="white"/>
<path d="M105.323 120.405H99.7095L99.8212 124.477L105.538 124.482L105.323 120.405Z" fill="white"/>
<path d="M91.2751 120.405H96.8891L96.9785 124.477H91.2751V120.405Z" fill="white"/>
<path d="M152.055 127.512H137.555L138.382 131.714H153.154L152.055 127.512Z" fill="white"/>
<path d="M134.659 127.512H128.861L129.518 131.714H135.427L134.659 127.512Z" fill="white"/>
<path d="M125.96 127.512H120.163L120.659 131.714H126.564L125.96 127.512Z" fill="white"/>
<path d="M117.262 127.512H111.465L111.796 131.714H117.7L117.262 127.512Z" fill="white"/>
<path d="M108.564 127.512H102.767L102.932 131.714H108.841L108.564 127.512Z" fill="white"/>
<path d="M49.1212 135.004H55.1151L54.4044 139.178H48.3032L49.1212 135.004Z" fill="white"/>
<path d="M58.1143 135.004H64.1082H103.071L103.236 139.178H57.4573L58.1143 135.004Z" fill="white"/>
<path d="M106.07 135.004H112.064L112.395 139.178H106.289L106.07 135.004Z" fill="white"/>
<path d="M115.063 135.004H121.057L121.549 139.178H115.443L115.063 135.004Z" fill="white"/>
<path d="M124.056 135.004H130.05L130.707 139.178H124.602L124.056 135.004Z" fill="white"/>
<path d="M133.045 135.004H139.039L139.861 139.178H133.756L133.045 135.004Z" fill="white"/>
<path d="M142.038 135.004H154.026L155.121 139.178H142.914L142.038 135.004Z" fill="white"/>
<path d="M99.8795 127.512H94.127V131.714H99.9912L99.8795 127.512Z" fill="white"/>
<path d="M91.1814 127.512H85.3841L85.2188 131.714H91.1277L91.1814 127.512Z" fill="white"/>
<path d="M82.4832 127.512H76.686L76.3552 131.714H82.2642L82.4832 127.512Z" fill="white"/>
<path d="M73.7851 127.512H67.9878L67.4917 131.714H73.4007L73.7851 127.512Z" fill="white"/>
<path d="M65.0914 127.512H59.2897L58.6282 131.714H64.5372L65.0914 127.512Z" fill="white"/>
<path d="M56.3934 127.512H50.5962L49.7693 131.714H55.6783L56.3934 127.512Z" fill="white"/>
<path d="M38.6306 117.844L39.5827 114.206H42.3092L41.4197 117.844H38.6306Z" fill="white"/>
<path d="M45.0357 114.206H50.4843L49.72 117.844H44.1775L45.0357 114.206Z" fill="white"/>
<path d="M53.2065 114.206H58.6596L58.0383 117.844H52.4958L53.2065 114.206Z" fill="white"/>
<path d="M61.3817 114.206H66.8303L66.3565 117.844H60.8096L61.3817 114.206Z" fill="white"/>
<path d="M69.5568 114.206H75.0054L74.6746 117.844H69.1277L69.5568 114.206Z" fill="white"/>
<path d="M77.7319 114.206H83.1805L82.9927 117.844H77.4458L77.7319 114.206Z" fill="white"/>
<path d="M85.907 114.206H91.3556L91.3109 117.844H85.7639L85.907 114.206Z" fill="white"/>
<path d="M94.0823 114.206H99.5309L99.6248 117.844H94.0823V114.206Z" fill="white"/>
<path d="M102.257 114.206H107.706L107.943 117.844H102.4L102.257 114.206Z" fill="white"/>
<path d="M110.432 114.206H115.881L116.261 117.844H110.718L110.432 114.206Z" fill="white"/>
<path d="M118.608 114.206H124.056L124.579 117.844H119.032L118.608 114.206Z" fill="white"/>
<path d="M126.778 114.206H132.231L132.897 117.844H127.35L126.778 114.206Z" fill="white"/>
<path d="M134.954 114.206H140.407L141.216 117.844H135.669L134.954 114.206Z" fill="white"/>
<path d="M143.129 114.206H148.577L149.534 117.844H143.987L143.129 114.206Z" fill="white"/>
<path d="M163.989 165H24.4124C23.9072 165.001 23.4069 164.902 22.94 164.709C22.4731 164.516 22.0488 164.233 21.6914 163.876C21.334 163.519 21.0505 163.095 20.857 162.628C20.6635 162.161 20.564 161.661 20.564 161.156H167.833C167.833 162.175 167.428 163.153 166.707 163.874C165.986 164.595 165.008 165 163.989 165V165Z" fill="url(#paint3_linear_234_139)"/>
<path d="M111.3 145.186C111.233 144.761 111.016 144.375 110.687 144.097C110.359 143.82 109.942 143.67 109.512 143.675H78.8582C78.4284 143.67 78.011 143.82 77.6827 144.097C77.3543 144.375 77.1369 144.761 77.0703 145.186L75.1528 156.785C75.1074 157.044 75.1197 157.31 75.189 157.564C75.2583 157.818 75.3828 158.053 75.5535 158.253C75.7243 158.454 75.9372 158.614 76.177 158.722C76.4168 158.831 76.6776 158.885 76.9407 158.881H111.456C111.719 158.885 111.98 158.831 112.22 158.722C112.46 158.614 112.672 158.454 112.843 158.253C113.014 158.053 113.138 157.818 113.208 157.564C113.277 157.31 113.289 157.044 113.244 156.785L111.3 145.186Z" fill="#4D78EB"/>
<path d="M58.0741 45.3586H45.5857V46.6369H58.0741V45.3586Z" fill="#E0E0E0"/>
<path d="M70.5894 54.9865H61.574V56.2648H70.5894V54.9865Z" fill="#E0E0E0"/>
<path d="M77.9777 54.9865H71.9927V56.2648H77.9777V54.9865Z" fill="#1487E3"/>
<path d="M51.7135 79.2034H45.7285V80.4818H51.7135V79.2034Z" fill="#1487E3"/>
<path d="M93.6083 54.9865H79.1621V56.2648H93.6083V54.9865Z" fill="#E0E0E0"/>
<path d="M55.0122 74.3538H45.7285V75.6321H55.0122V74.3538Z" fill="#E0E0E0"/>
<path d="M64.3361 84.0173H58.6685V85.2957H64.3361V84.0173Z" fill="#E0E0E0"/>
<path d="M56.9565 84.0173H45.7285V85.2957H56.9565V84.0173Z" fill="#1487E3"/>
<path d="M51.9236 88.8312H45.7285V90.1096H51.9236V88.8312Z" fill="#E0E0E0"/>
<path d="M69.3736 45.3586H60.5056V46.6369H69.3736V45.3586Z" fill="#78C2FF"/>
<path d="M69.3736 59.8003H60.5056V61.0786H69.3736V59.8003Z" fill="#1487E3"/>
<path d="M59.8619 64.6142H56.0715V65.8925H59.8619V64.6142Z" fill="#E0E0E0"/>
<path d="M60.796 69.4996H52.2856V70.778H60.796V69.4996Z" fill="#78C2FF"/>
<path d="M73.8253 69.4996H62.0789V70.778H73.8253V69.4996Z" fill="#1487E3"/>
<path d="M54.5965 64.65H45.7285V65.9283H54.5965V64.65Z" fill="#1487E3"/>
<path d="M50.9894 69.4996H45.7285V70.778H50.9894V69.4996Z" fill="#1487E3"/>
<path d="M66.6067 64.65H61.6453V65.9283H66.6067V64.65Z" fill="#FF8761"/>
<path d="M50.8376 93.6451H45.8762V94.9235H50.8376V93.6451Z" fill="#FF8761"/>
<path d="M54.5608 54.9865H45.6929V56.2648H54.5608V54.9865Z" fill="#78C2FF"/>
<path d="M62.4007 79.2034H53.5327V80.4818H62.4007V79.2034Z" fill="#78C2FF"/>
<path d="M62.5125 88.8312H53.6445V90.1096H62.5125V88.8312Z" fill="#78C2FF"/>
<path d="M78.2639 88.8312H69.396V90.1096H78.2639V88.8312Z" fill="#78C2FF"/>
<path d="M58.3333 59.8003H45.6929V61.0786H58.3333V59.8003Z" fill="#78C2FF"/>
<path d="M113.789 45.3586H104.921V46.6369H113.789V45.3586Z" fill="#78C2FF"/>
<path d="M82.2017 93.6451H73.3337V94.9235H82.2017V93.6451Z" fill="#78C2FF"/>
<path d="M122.483 45.3586H116.547V46.6369H122.483V45.3586Z" fill="#78C2FF"/>
<path d="M142.561 50.1725H136.625V51.4508H142.561V50.1725Z" fill="#78C2FF"/>
<path d="M83.0553 45.3586H71.7603V46.6369H83.0553V45.3586Z" fill="#1487E3"/>
<path d="M127.069 50.1725H115.774V51.4508H127.069V50.1725Z" fill="#1487E3"/>
<path d="M113.213 54.9865H101.918V56.2648H113.213V54.9865Z" fill="#1487E3"/>
<path d="M98.5072 59.8003H87.2122V61.0786H98.5072V59.8003Z" fill="#1487E3"/>
<path d="M122.671 54.9865H114.639V56.2648H122.671V54.9865Z" fill="#78C2FF"/>
<path d="M102.704 45.3586H91.4094V46.6369H102.704V45.3586Z" fill="#FF8761"/>
<path d="M85.1473 59.8003H78.5232V61.0786H85.1473V59.8003Z" fill="#FF8761"/>
<path d="M79.9579 79.275H73.3337V80.5533H79.9579V79.275Z" fill="#FF8761"/>
<path d="M89.2773 45.3586H85.1428V46.6369H89.2773V45.3586Z" fill="#E0E0E0"/>
<path d="M75.8948 59.8003H71.7603V61.0786H75.8948V59.8003Z" fill="#E0E0E0"/>
<path d="M133.93 50.1725H129.795V51.4508H133.93V50.1725Z" fill="#E0E0E0"/>
<path d="M52.0534 50.1725H45.5857V51.4508H52.0534V50.1725Z" fill="#1487E3"/>
<path d="M67.9566 74.385H62.8477V75.6634H67.9566V74.385Z" fill="#1487E3"/>
<path d="M55.7319 50.1725H53.6445V51.4508H55.7319V50.1725Z" fill="#1487E3"/>
<path d="M113.785 50.1725H96.5227V51.4508H113.785V50.1725Z" fill="#E0E0E0"/>
<path d="M97.2243 88.8312H79.9578V90.1096H97.2243V88.8312Z" fill="#E0E0E0"/>
<path d="M59.397 50.1725H57.2649V51.4508H59.397V50.1725Z" fill="#FF8761"/>
<path d="M94.9315 50.1725H89.2817V51.4508H94.9315V50.1725Z" fill="#1487E3"/>
<path d="M100.577 54.9865H94.927V56.2648H100.577V54.9865Z" fill="#FF8761"/>
<path d="M71.5323 93.6451H65.8826V94.9235H71.5323V93.6451Z" fill="#FF8761"/>
<path d="M87.7845 50.1725H75.7654V51.4508H87.7845V50.1725Z" fill="#1487E3"/>
<path d="M71.604 79.275H64.582V80.5533H71.604V79.275Z" fill="#1487E3"/>
<path d="M67.6438 88.8312H64.1306V90.1096H67.6438V88.8312Z" fill="#1487E3"/>
<path d="M74.0622 50.1725H69.9277V51.4508H74.0622V50.1725Z" fill="#78C2FF"/>
<path d="M60.1435 54.9865H56.009V56.2648H60.1435V54.9865Z" fill="#FF8761"/>
<path d="M60.966 74.385H56.8315V75.6634H60.966V74.385Z" fill="#FF8761"/>
<path d="M68.35 50.1725H61.1448V51.4508H68.35V50.1725Z" fill="#1487E3"/>
<g opacity="0.76">
<path opacity="0.76" d="M166.63 61.4005H114.384C113.394 61.4005 112.591 62.203 112.591 63.1929V99.4156C112.591 100.406 113.394 101.208 114.384 101.208H166.63C167.62 101.208 168.423 100.406 168.423 99.4156V63.1929C168.423 62.203 167.62 61.4005 166.63 61.4005Z" fill="white"/>
</g>
<path d="M162.398 81.8853H153.4C153.02 81.8853 152.712 82.1934 152.712 82.5736V83.9637C152.712 84.3438 153.02 84.652 153.4 84.652H162.398C162.778 84.652 163.086 84.3438 163.086 83.9637V82.5736C163.086 82.1934 162.778 81.8853 162.398 81.8853Z" fill="#4AAFFF"/>
<path d="M162.398 87.0657H153.4C153.02 87.0657 152.712 87.3739 152.712 87.754V89.1441C152.712 89.5243 153.02 89.8324 153.4 89.8324H162.398C162.778 89.8324 163.086 89.5243 163.086 89.1441V87.754C163.086 87.3739 162.778 87.0657 162.398 87.0657Z" fill="#4AAFFF"/>
<path d="M162.398 92.2462H153.4C153.02 92.2462 152.712 92.5543 152.712 92.9345V94.3246C152.712 94.7047 153.02 95.0129 153.4 95.0129H162.398C162.778 95.0129 163.086 94.7047 163.086 94.3246V92.9345C163.086 92.5543 162.778 92.2462 162.398 92.2462Z" fill="#4AAFFF"/>
<path d="M147.697 75.717C147.029 73.7938 145.987 72.0219 144.63 70.5037C143.274 68.9855 141.63 67.7511 139.794 66.8718C137.958 65.9925 135.965 65.4857 133.932 65.3808C131.899 65.2758 129.865 65.5748 127.948 66.2603C126.031 66.9459 124.269 68.0045 122.763 69.3749C121.258 70.7454 120.039 72.4006 119.176 74.2449C118.314 76.0892 117.826 78.086 117.74 80.1201C117.654 82.1542 117.972 84.1852 118.675 86.0958C118.791 86.4221 118.921 86.7439 119.055 87.0568C120.652 90.7194 123.61 93.6184 127.304 95.1422C130.998 96.6661 135.139 96.6956 138.854 95.2247C142.57 93.7538 145.568 90.8974 147.218 87.2579C148.868 83.6185 149.039 79.4806 147.697 75.717V75.717ZM137.077 91.7857C134.867 92.5766 132.468 92.6756 130.201 92.0696C127.933 91.4635 125.903 90.1812 124.383 88.3932C123.647 87.5292 123.045 86.5606 122.595 85.5192C122.492 85.2823 122.394 85.0409 122.309 84.7995C121.537 82.6473 121.421 80.3145 121.976 78.0965C122.531 75.8784 123.731 73.8749 125.425 72.3394C127.119 70.8038 129.231 69.8055 131.493 69.4705C133.754 69.1356 136.065 69.4793 138.131 70.458C140.197 71.4367 141.927 73.0064 143.101 74.9685C144.274 76.9305 144.84 79.1968 144.725 81.4803C144.61 83.7637 143.82 85.9619 142.456 87.7963C141.091 89.6308 139.213 91.0192 137.059 91.7857H137.077Z" fill="#4AAFFF"/>
<path d="M122.157 77.4647L118.474 76.3115C119.434 73.253 121.322 70.5691 123.876 68.6318C126.43 66.6944 129.524 65.5996 132.728 65.4992L132.839 69.3566C130.437 69.4295 128.117 70.2497 126.202 71.7029C124.287 73.1562 122.873 75.1702 122.157 77.4647Z" fill="#1A598C"/>
<path d="M122.595 85.5192L119.055 87.0568C118.921 86.7439 118.791 86.4221 118.675 86.0958C117.543 82.9434 117.473 79.5077 118.474 76.3115L122.157 77.4647C121.405 79.8607 121.459 82.4368 122.309 84.7996C122.394 85.0409 122.474 85.2823 122.595 85.5192Z" fill="#2273B5"/>
<path d="M121.446 90.8918C120.463 89.7391 119.657 88.4466 119.055 87.0568L122.595 85.5192C123.045 86.5606 123.647 87.5292 124.383 88.3932L121.446 90.8918Z" fill="#3788CC"/>
<path d="M138.333 90.047C138.333 90.047 137.586 88.7419 138.78 85.2376C138.97 84.5865 139.345 84.0042 139.858 83.5606C140.371 83.117 141.002 82.8308 141.674 82.7365C142.345 82.6421 143.03 82.7436 143.646 83.0286C144.261 83.3137 144.782 83.7703 145.144 84.3436C146.405 86.5115 145.98 87.8613 144.125 90.3107C142.27 92.7602 139.101 91.1823 138.333 90.047Z" fill="#EEA886"/>
<path d="M147.536 150.281C147.536 150.281 147.732 151.72 147.759 151.935C147.786 152.15 149.94 151.81 149.94 151.81L150.115 150.098C150.115 150.098 147.808 150.08 147.536 150.281Z" fill="#EEA886"/>
<path d="M147.732 151.756C147.352 152.237 146.9 152.656 146.391 152.999C145.73 153.374 144.688 153.526 144.3 153.915C144.018 154.197 143.272 155.412 146.016 155.39C148.76 155.368 150.088 155.56 150.378 155.095C150.669 154.63 149.954 151.658 149.954 151.658C149.222 151.799 148.474 151.832 147.732 151.756Z" fill="#414773"/>
<path d="M132.603 150.281C132.603 150.281 132.795 151.72 132.822 151.935C132.848 152.15 135.003 151.81 135.003 151.81L135.177 150.098C135.177 150.098 132.871 150.08 132.603 150.281Z" fill="#EEA886"/>
<path d="M132.799 151.756C132.418 152.236 131.966 152.655 131.458 152.999C130.797 153.374 128.365 153.687 127.972 154.076C127.69 154.358 127.221 155.493 131.101 155.39C133.845 155.314 135.168 155.56 135.463 155.095C135.758 154.63 135.038 151.658 135.038 151.658C134.297 151.764 133.547 151.797 132.799 151.756V151.756Z" fill="#414773"/>
<path d="M146.812 114.483C146.812 114.483 147.916 117.916 147.773 120.879C147.63 123.843 148.345 127.083 148.635 130.176C148.962 133.627 150.303 141.798 150.352 143.639C150.401 145.481 150.142 151.376 150.142 151.376L147.46 151.439C147.46 151.439 145.225 137.163 144.626 135.705C144.027 134.248 141.153 123.865 141.05 122.698C140.947 121.532 146.812 114.483 146.812 114.483Z" fill="#2D314F"/>
<path d="M135.705 114.121C135.705 114.121 134.078 123.212 133.881 125.023C133.684 126.833 133.559 133.797 133.461 134.932C133.362 136.067 132.813 149.758 132.299 151.439H135.284C135.284 151.439 138.351 141.485 138.351 136.774C138.351 132.063 140.38 126.538 141.694 123.427C143.008 120.316 146.003 120.249 146.812 114.488C146.812 114.483 136.777 112.293 135.705 114.121Z" fill="#2D314F"/>
<path d="M139.414 90.9722C139.602 91.5167 139.602 92.1084 139.414 92.6529C139.079 93.3501 143.719 92.93 143.719 92.93C143.61 92.0326 143.747 91.1224 144.116 90.2973C144.724 89.1084 139.414 90.9722 139.414 90.9722Z" fill="#EEA886"/>
<path d="M147.026 115.229C147.026 115.229 145.355 116.946 135.552 114.961L135.704 114.121L146.848 114.541L147.026 115.229Z" fill="#2B3B57"/>
<path d="M138.713 92.8808C138.713 92.8808 136.996 93.0551 136.509 93.149C136.022 93.2429 132.723 92.559 132.039 92.4875C131.355 92.416 128.463 90.4404 128.387 90.2079C128.311 89.9755 126.631 85.7695 126.537 84.8442C126.443 83.919 124.919 84.3973 125.049 85.032C125.294 86.203 125.607 89.0547 125.782 89.8772C125.956 90.6996 126.465 92.7825 126.747 93.0328C128.382 94.3335 130.212 95.3683 132.169 96.099C133.733 96.6187 135.233 97.3161 136.639 98.1775H149.154C149.154 98.1775 154.026 91.2092 154.133 90.1588C154.24 89.1084 150.727 82.1356 150.025 81.2595C149.324 80.3835 148.314 81.5456 148.314 81.5456C148.314 81.5456 150.41 87.6959 150.691 88.572C150.973 89.4481 148.251 93.292 147.505 93.301C146.758 93.3099 144.845 93.0686 143.991 93.0328C143.392 92.9853 142.803 92.8482 142.244 92.6261L138.713 92.8808Z" fill="#EEA886"/>
<path d="M133.313 97.5338C133.769 97.8539 134.153 98.265 134.441 98.7413C134.73 99.2175 134.916 99.7485 134.989 100.301C135.178 102.142 135.505 103.966 135.968 105.758C136.25 106.706 135.727 113.562 135.655 114.054C135.584 114.546 145.35 115.708 146.829 114.541C146.829 114.541 147.25 108.14 147.424 106.321C147.598 104.502 148.439 100.09 148.72 99.496C149.002 98.9015 152.394 94.1323 152.533 93.5155C152.533 93.5155 150.776 90.713 149.516 90.6817C149.516 90.6817 147.518 93.0238 146.865 93.1311C146.213 93.2384 142.23 92.5232 142.23 92.4964C142.23 92.4696 141.783 93.0909 139.477 92.3891C139.477 92.3891 136.71 92.702 136.263 92.7601C135.718 92.8272 131.936 92.2863 131.936 92.2863C131.936 92.2863 130.417 94.8475 130.685 96.1392L133.313 97.5338Z" fill="#FFC655"/>
<path d="M126.631 85.4029C126.631 85.4029 126.287 83.7849 126.698 83.3155C126.935 83.0518 127.498 82.3501 127.552 82.2473C127.605 82.1445 128.209 81.8003 128.209 81.6305C128.209 81.4606 127.614 81.255 127.1 81.7333C126.586 82.2115 126.26 82.3143 126.054 82.2607C125.849 82.2071 125.554 80.4951 125.527 80.0705C125.5 79.6459 125.339 78.524 125.08 78.6C124.821 78.676 124.825 79.1676 124.825 79.1676C124.825 79.1676 124.517 78.3184 124.311 78.4838C124.106 78.6491 124.132 79.0648 124.132 79.0648C124.132 79.0648 123.744 78.5866 123.641 78.9352C123.58 79.15 123.58 79.3775 123.641 79.5923C123.641 79.5923 123.243 79.3732 123.216 79.9141C123.2 80.8238 123.335 81.7299 123.614 82.5959C123.9 83.1636 124.955 84.6475 125.089 85.2241C125.223 85.8007 126.631 85.4029 126.631 85.4029Z" fill="#EEA886"/>
<path d="M148.662 82.5558C148.662 82.5558 147.496 80.598 147.098 80.4237C146.593 80.2732 146.109 80.0632 145.654 79.7979C145.162 79.4493 144.514 79.1588 144.55 79.0426C144.586 78.9263 145.162 78.971 145.779 79.2392C146.396 79.5074 146.673 79.3778 146.727 79.2392C146.651 78.7543 146.476 78.2903 146.213 77.876C146.025 77.6435 144.697 76.3071 144.917 76.0881C145.136 75.869 146.003 76.6244 146.141 76.7764C146.141 76.7764 145.453 75.3327 145.721 75.2612C145.989 75.1897 146.49 75.7081 146.49 75.7081C146.49 75.7081 146.432 74.4745 147.764 76.4769C147.764 76.4769 147.482 75.8154 147.893 76.03C148.305 76.2445 148.698 77.5005 148.823 78.1307C148.948 78.761 149.534 80.7679 150.03 81.2596C150.526 81.7512 148.662 82.5558 148.662 82.5558Z" fill="#EEA886"/>
<path d="M144.117 90.2884C143.457 90.2761 142.805 90.1412 142.195 89.8906C140.889 89.4436 140.791 87.1551 140.509 87.4233C140.422 87.5228 140.312 87.5997 140.188 87.6474C140.064 87.6951 139.931 87.7122 139.799 87.6973C139.668 87.6824 139.541 87.6358 139.432 87.5617C139.322 87.4875 139.232 87.3879 139.169 87.2713C139.169 87.2713 139.803 86.431 139.508 86.0243C139.29 85.7499 139.027 85.5142 138.73 85.327C138.73 85.327 139.651 80.8975 143.83 82.9133C148.734 85.2868 144.117 90.2884 144.117 90.2884Z" fill="#353A3D"/>
<path d="M139.414 92.6529L139.562 92.0137C140.939 91.9802 142.317 92.0325 143.687 92.1702L143.839 92.9345C143.839 92.9345 141.975 93.7793 139.414 92.6529Z" fill="#D4D8E8"/>
<path d="M140.071 86.8735C140.317 86.4712 141.211 86.1985 141.318 87.3205C141.399 88.2144 139.714 89.1709 139.7 88.344C139.668 87.8272 139.797 87.313 140.071 86.8735V86.8735Z" fill="#EEA886"/>
<path d="M126.568 85.0364C126.058 85.044 125.561 85.1992 125.138 85.4834C125.122 85.6467 125.148 85.8114 125.214 85.9617C125.684 85.7506 126.18 85.6004 126.689 85.5147C126.689 85.5147 126.68 85.1482 126.568 85.0364Z" fill="#E55353"/>
<path d="M125.433 85.2778C125.412 85.3277 125.401 85.3813 125.4 85.4355C125.4 85.4896 125.41 85.5434 125.431 85.5936C125.451 85.6438 125.481 85.6895 125.519 85.7281C125.557 85.7668 125.602 85.7975 125.652 85.8186C125.702 85.8398 125.756 85.8509 125.81 85.8513C125.864 85.8517 125.918 85.8415 125.968 85.8212C126.018 85.8008 126.064 85.7708 126.102 85.7328C126.141 85.6948 126.172 85.6495 126.193 85.5996C126.236 85.4989 126.236 85.3853 126.195 85.2838C126.154 85.1824 126.075 85.1015 125.974 85.0588C125.873 85.0161 125.76 85.0152 125.658 85.0563C125.557 85.0974 125.476 85.177 125.433 85.2778V85.2778Z" fill="#353A3D"/>
<path d="M101.779 51.0575C101.779 51.0575 103.156 53.3907 103.737 53.7706C104.528 54.2891 104.032 54.8121 103.656 54.8121C103.281 54.8121 101.368 54.9506 100.948 54.4724C100.528 53.9941 100.318 52.5593 99.9243 52.1839C99.5309 51.8084 99.1287 50.32 100.116 49.949C100.988 49.6361 101.779 51.0575 101.779 51.0575Z" fill="#6069A8"/>
<path d="M101.185 50.0294C101.185 50.0294 102.762 52.7649 103.031 53.1582C103.299 53.5516 102.521 53.5605 102.034 53.3683C101.547 53.1761 100.331 51.2184 100.152 50.8608C100.038 50.5757 100.026 50.2601 100.116 49.9669L101.185 50.0294Z" fill="#202338"/>
<path d="M99.5889 51.5L99.9509 54.3025L100.143 54.3115L100.085 52.2956L99.5889 51.5Z" fill="#6069A8"/>
<path d="M88.133 51.0575C88.133 51.0575 89.5097 53.3907 90.0907 53.7706C90.8774 54.2891 90.3857 54.8121 90.0103 54.8121C89.6348 54.8121 87.7218 54.9506 87.3016 54.4724C86.8814 53.9941 86.6714 52.5593 86.278 52.1839C85.8847 51.8084 85.469 50.2798 86.4702 49.949C87.3463 49.6719 88.133 51.0575 88.133 51.0575Z" fill="#6069A8"/>
<path d="M87.6101 50.0607C87.6101 50.0607 89.103 52.7873 89.3756 53.1896C89.6483 53.5918 88.8616 53.5918 88.3789 53.3996C87.8962 53.2074 86.6714 51.2497 86.4971 50.8921C86.3799 50.6077 86.3672 50.291 86.4614 49.9982L87.6101 50.0607Z" fill="#202338"/>
<path d="M85.9382 51.5L86.3003 54.3025L86.4969 54.3115L86.4344 52.2956L85.9382 51.5Z" fill="#6069A8"/>
<path d="M82.0273 29.8263L94.48 35.4984C94.8984 35.6542 95.2648 35.9239 95.5381 36.2769C95.8113 36.6299 95.9805 37.0523 96.0266 37.4963C96.5138 42.3147 100.116 49.958 100.116 49.958C101.274 50.5211 101.185 50.0295 101.185 50.0295C100.456 47.6918 99.5666 38.0506 99.2537 34.1753C99.1867 33.3529 99.142 32.7897 99.133 32.6109C99.1241 32.4321 98.9945 32.3293 98.762 32.1639C97.0546 30.7783 90.0237 27.9088 90.0237 27.9088C84.7449 27.7523 82.0273 29.8263 82.0273 29.8263Z" fill="#202338"/>
<path d="M79.6762 32.2623C80.065 35.628 84.87 35.2436 84.87 35.2436H90.6806C89.7853 37.261 89.0746 39.3555 88.5575 41.5013C87.9318 44.5451 86.4567 49.9401 86.4567 49.9401C86.4567 49.9401 86.5506 50.1234 87.6055 50.0206C87.6055 50.0206 92.178 40.9068 93.9257 38.6183C94.7312 37.1308 95.2869 35.5211 95.5705 33.8535C95.6331 33.3127 95.5705 32.9015 95.3917 32.7316C94.979 32.4108 94.5493 32.1124 94.1045 31.8377C92.2808 30.689 89.1118 28.9189 87.3462 28.5211C84.9862 27.9892 81.245 26.9925 81.245 26.9925C80.6114 27.701 80.1421 28.5408 79.8709 29.4518C79.5997 30.3629 79.5332 31.3226 79.6762 32.2623V32.2623Z" fill="#202338"/>
<path d="M83.641 6.32886C83.1248 5.2694 82.9679 4.0706 83.194 2.91398C83.6186 1.1529 85.2545 -0.603701 87.6637 0.200851C90.0729 1.0054 91.9949 2.88269 90.5601 5.01923C89.1253 7.15576 91.8563 8.14804 91.1591 9.16267C90.4618 10.1773 90.7121 11.2545 91.0205 11.4959C91.3289 11.7372 92.2676 12.582 92.1648 13.5877C92.0619 14.5934 87.5207 10.6556 87.5207 10.6556C87.5207 10.6556 85.0311 5.68969 83.641 6.32886Z" fill="#464240"/>
<path d="M81.1736 27.5154L80.7267 28.3423L90.9266 28.6373C90.3902 26.8494 90.5646 24.4 90.6584 22.545C90.7746 20.3102 92.0217 18.7145 91.8876 16.426C92.5625 16.5377 92.6787 16.5556 93.3537 16.6584C92.3212 13.7218 91.968 12.2691 88.7677 11.1383C87.8576 10.7938 86.8778 10.6742 85.9116 10.7896C82.2061 11.098 81.0887 11.1427 79.2695 14.4995C82.1168 14.9465 81.6474 15.979 82.5146 18.8128C82.9347 20.1939 83.3728 21.736 83.1493 23.1976C82.9258 24.6592 81.1736 26.2057 81.1736 27.5154Z" fill="#325BB3"/>
<path d="M84.1951 10.7271C84.1951 10.7271 87.2524 14.2626 88.3832 15.0806C88.3832 15.0806 89.6839 13.9051 88.8838 10.8075C88.8838 10.7941 87.4043 10.0522 84.1951 10.7271Z" fill="#EEA886"/>
<path d="M84.2755 2.23455C84.2755 2.23455 82.6888 5.29632 84.2755 8.19718C85.8623 11.098 88.9509 6.93224 89.152 6.44504C89.3532 5.95784 90.4125 3.19107 88.2983 2.35523C86.1841 1.51939 84.727 1.38083 84.2755 2.23455Z" fill="#EEA886"/>
<path d="M84.8031 3.29841C84.8031 3.29841 83.7125 4.73319 83.5874 5.8104C83.3641 4.4447 83.647 3.04446 84.383 1.87256C85.6122 -0.0538942 88.7454 1.78317 89.1656 2.55196C89.5858 3.32076 90.8105 4.00016 88.7454 7.31223C88.741 7.29882 85.0311 4.71978 84.8031 3.29841Z" fill="#464240"/>
<path d="M71.282 24.762C71.282 24.762 70.5266 25.0973 70.169 24.9453C69.8196 24.8246 69.4525 24.7627 69.0829 24.762C68.8504 24.762 68.1174 24.4983 68.1308 24.7844C68.1442 25.0705 69.3197 25.2716 69.5566 25.361C69.7935 25.4504 68.8415 25.9778 68.7521 26.2102C68.6627 26.4427 69.7444 27.9981 70.3567 27.5512C70.9691 27.1042 71.2954 26.2371 71.4205 26.1834C71.5751 26.0906 71.7243 25.9891 71.8675 25.8795L71.282 24.762Z" fill="#EEA886"/>
<path d="M68.8638 26.0762C68.8638 26.0762 67.0759 27.5467 67.0759 27.7434C67.0759 27.9401 67.143 28.0339 67.3128 27.9043L69.0694 26.5366C69.0694 26.5366 67.2815 28.6329 67.2368 28.7714C67.1921 28.91 67.3709 29.053 67.4693 28.9949C67.5676 28.9368 69.4583 26.9567 69.4583 26.9567C69.4583 26.9567 67.8045 28.9189 67.7956 29.0664C67.7978 29.1027 67.8103 29.1375 67.8315 29.1669C67.8528 29.1964 67.8819 29.2192 67.9156 29.2328C67.9492 29.2463 67.9861 29.2501 68.0218 29.2436C68.0575 29.2371 68.0906 29.2206 68.1174 29.196L69.9053 27.3277C69.9053 27.3277 68.8012 28.834 68.8683 28.9681C68.9353 29.1022 69.0516 29.2184 69.3153 28.8206C69.579 28.4228 70.3344 27.5557 70.3344 27.5557L68.8638 26.0762Z" fill="#EEA886"/>
<path d="M90.0862 35.2436H84.87C84.87 35.2436 80.0651 35.628 79.6807 32.2623C79.5427 31.3268 79.6126 30.3724 79.8853 29.467C80.158 28.5616 80.6268 27.7274 81.2585 27.0237C81.2585 27.0237 83.7973 27.7031 86.0143 28.235C87.337 27.9622 88.6871 27.8452 90.0371 27.8864C90.0371 27.8864 99.4235 31.0152 99.1464 32.6243C99.133 32.6288 95.2085 30.5235 90.0862 35.2436Z" fill="#FF7E55"/>
<path d="M86.6892 29.4151L96.6344 29.2676L91.6149 31.8153L86.6892 29.4151Z" fill="#5E5853"/>
<path d="M91.6149 31.8153L86.6892 29.9112V29.415L92.0037 31.3281L91.6149 31.8153Z" fill="#91887F"/>
<path d="M89.7465 28.606C89.7404 28.6901 89.7561 28.7743 89.7921 28.8506C89.828 28.9269 89.8829 28.9927 89.9516 29.0416C90.0203 29.0905 90.1004 29.121 90.1842 29.13C90.2681 29.139 90.3528 29.1264 90.4303 29.0932L91.0069 28.8473C91.0922 28.8114 91.1629 28.7477 91.2075 28.6666C91.2521 28.5855 91.2681 28.4917 91.2528 28.4004C91.0114 26.8941 90.4929 21.0387 91.2528 20.0375C91.4846 19.7393 91.67 19.4078 91.8025 19.0542C92.3032 20.337 92.92 21.9908 93.1435 22.8803L97.8412 29.1379L99.419 29.5402C98.4215 27.0378 97.2367 24.6143 95.8745 22.2902C95.5661 21.4678 94.6855 18.9648 93.9033 16.7388C93.4116 15.3353 92.9557 14.057 92.7144 13.3418C92.5934 12.9969 92.3564 12.7046 92.0439 12.5149C91.3153 12.068 90.104 11.393 89.0045 10.8567L88.8972 10.8075C90.9891 13.9721 90.1711 22.9071 89.7599 28.6194L89.7465 28.606Z" fill="#EDDAD3"/>
<path d="M81.9826 11.0623C81.3122 11.1651 79.6539 12.7787 78.7689 14.4057C77.7632 16.2606 76.7396 18.3793 75.9709 19.0721C74.5584 20.3504 70.6072 24.8827 70.4194 24.7665C70.7925 25.268 71.2034 25.7402 71.6486 26.1789C71.7246 26.2147 78.1476 20.6454 78.7644 19.8006C79.3813 18.9559 80.9054 15.6438 81.3792 15.6929C81.8295 16.7094 82.2118 17.7546 82.5235 18.8218L82.5503 18.9112C82.8853 20.2721 82.931 21.6883 82.6844 23.068C82.5324 24.2257 81.6698 26.1208 81.1468 27.0416C81.1151 27.1181 81.0988 27.2001 81.0988 27.283C81.0988 27.3658 81.1151 27.4478 81.1468 27.5243V27.5243C81.1666 27.5679 81.195 27.607 81.2303 27.6393C81.2657 27.6716 81.3072 27.6963 81.3524 27.7121L83.2386 28.4093L83.6856 28.5747C83.8337 28.6275 83.9923 28.6437 84.148 28.6219C84.3036 28.6001 84.4517 28.541 84.5796 28.4496C84.6856 28.3722 84.7748 28.2741 84.8417 28.1611C84.9086 28.0481 84.9517 27.9227 84.9684 27.7925C85.3886 24.5654 85.9205 21.2712 86.3406 20.0286C86.895 18.4767 87.117 16.8256 86.9923 15.1824C86.8675 13.5392 86.3988 11.9406 85.6165 10.4902C84.3961 10.6177 83.1832 10.8087 81.9826 11.0623V11.0623Z" fill="#EDDAD3"/>
<path d="M91.615 31.8153L94.574 23.7385L104.108 23.8949L101.287 31.337L91.615 31.8153Z" fill="#6E6760"/>
<path d="M97.6223 27.3143C97.3317 27.8953 97.4211 28.5256 97.8189 28.7267C98.2168 28.9278 98.7799 28.6194 99.0705 28.0339C99.361 27.4484 99.2716 26.8226 98.8738 26.6215C98.476 26.4203 97.9128 26.7287 97.6223 27.3143Z" fill="#807066"/>
<path d="M87.5697 5.26058C87.5697 5.26058 88.1821 6.21263 87.6189 7.04847C87.0557 7.88431 87.7619 8.67545 87.8826 9.54258C88.0033 10.4097 85.5271 12.7161 88.2849 13.8782C91.0427 15.0404 91.9143 13.1184 91.2126 12.0635C90.5108 11.0087 90.0102 10.1505 89.9521 8.64416C89.894 7.13786 89.3979 4.77337 87.5697 5.26058Z" fill="#464240"/>
<defs>
<linearGradient id="paint0_linear_234_139" x1="30.0981" y1="79.8918" x2="164.382" y2="79.8918" gradientUnits="userSpaceOnUse">
<stop stop-color="#40D5E6"/>
<stop offset="1" stop-color="#5577FF"/>
</linearGradient>
<linearGradient id="paint1_linear_234_139" x1="38.0183" y1="73.9515" x2="150.133" y2="73.9515" gradientUnits="userSpaceOnUse">
<stop stop-color="#404B61"/>
<stop offset="0.49" stop-color="#3C4860"/>
<stop offset="1" stop-color="#2F3E5C"/>
</linearGradient>
<linearGradient id="paint2_linear_234_139" x1="31056.9" y1="11937.9" x2="31056.9" y2="20170.6" gradientUnits="userSpaceOnUse">
<stop stop-color="#40D5E6"/>
<stop offset="1" stop-color="#5577FF"/>
</linearGradient>
<linearGradient id="paint3_linear_234_139" x1="-15694.5" y1="1563.63" x2="32827.6" y2="1563.63" gradientUnits="userSpaceOnUse">
<stop stop-color="#40D5E6"/>
<stop offset="1" stop-color="#5577FF"/>
</linearGradient>
</defs>
</svg>
