<svg width="36" height="36" viewBox="0 0 36 36" fill="none" xmlns="http://www.w3.org/2000/svg">
<path fill-rule="evenodd" clip-rule="evenodd" d="M21.5776 23.1686C17.6022 26.3526 11.783 26.102 8.09787 22.4168C4.14381 18.4627 4.14381 12.0519 8.09787 8.09787C12.0519 4.14381 18.4627 4.14381 22.4168 8.09787C26.102 11.783 26.3526 17.6022 23.1686 21.5776L30.902 29.311C31.3414 29.7504 31.3414 30.4627 30.902 30.902C30.4627 31.3414 29.7504 31.3414 29.311 30.902L21.5776 23.1686ZM9.68886 20.8258C6.61348 17.7504 6.61348 12.7642 9.68886 9.68886C12.7642 6.61348 17.7504 6.61348 20.8258 9.68886C23.8989 12.762 23.9012 17.7431 20.8326 20.819C20.8303 20.8212 20.828 20.8235 20.8258 20.8258C20.8235 20.828 20.8213 20.8303 20.819 20.8325C17.7431 23.9012 12.762 23.8989 9.68886 20.8258Z" fill="#656565"/>
</svg>
