<svg width="60" height="60" viewBox="0 0 60 60" fill="none" xmlns="http://www.w3.org/2000/svg">
<circle cx="30" cy="30" r="30" fill="#DDDDDD"/>
<path d="M30.7693 17.7693C27.583 17.7693 25 20.3523 25 23.5385C25 26.7248 27.583 29.3077 30.7693 29.3077C33.9555 29.3077 36.5385 26.7248 36.5385 23.5385C36.5385 20.3523 33.9555 17.7693 30.7693 17.7693Z" fill="white"/>
<path d="M24.6154 32.3847C21.4292 32.3847 18.8462 34.9676 18.8462 38.1539V39.982C18.8462 41.1408 19.686 42.1289 20.8297 42.3156C27.4125 43.3904 34.126 43.3904 40.7088 42.3156C41.8525 42.1289 42.6923 41.1408 42.6923 39.982V38.1539C42.6923 34.9676 40.1094 32.3847 36.9231 32.3847H36.3987C36.1149 32.3847 35.8328 32.4296 35.563 32.5177L34.2314 32.9525C31.9818 33.687 29.5568 33.687 27.3071 32.9525L25.9755 32.5177C25.7057 32.4296 25.4237 32.3847 25.1398 32.3847H24.6154Z" fill="white"/>
</svg>
